<?xml version="1.0" encoding="UTF-8"?>
<svg id="Layer_1" data-name="Layer 1" xmlns="http://www.w3.org/2000/svg" xmlns:xlink="http://www.w3.org/1999/xlink" viewBox="0 0 340.16 226.77">
  <defs>
    <style>
      .cls-1 {
        fill: url(#USGS_20_Macchia_2);
      }

      .cls-1, .cls-2, .cls-3, .cls-4, .cls-5, .cls-6 {
        stroke-width: 0px;
      }

      .cls-7 {
        letter-spacing: -.04em;
      }

      .cls-8 {
        letter-spacing: -.02em;
      }

      .cls-9 {
        letter-spacing: -.04em;
      }

      .cls-10 {
        letter-spacing: -.02em;
      }

      .cls-11 {
        letter-spacing: -.02em;
      }

      .cls-12 {
        letter-spacing: -.02em;
      }

      .cls-13 {
        letter-spacing: -.04em;
      }

      .cls-14 {
        letter-spacing: -.04em;
      }

      .cls-15 {
        clip-path: url(#clippath);
      }

      .cls-2, .cls-16, .cls-17 {
        fill: none;
      }

      .cls-18 {
        letter-spacing: -.02em;
      }

      .cls-19 {
        letter-spacing: -.04em;
      }

      .cls-20 {
        letter-spacing: -.03em;
      }

      .cls-21 {
        fill: #ff5afb;
        font-size: 11.4px;
      }

      .cls-21, .cls-22, .cls-23 {
        font-family: CanelaText-Light, 'Canela Text';
        font-weight: 300;
      }

      .cls-24 {
        letter-spacing: -.14em;
      }

      .cls-25 {
        letter-spacing: -.03em;
      }

      .cls-26 {
        letter-spacing: -.03em;
      }

      .cls-27 {
        letter-spacing: -.01em;
      }

      .cls-28 {
        letter-spacing: -.06em;
      }

      .cls-29 {
        letter-spacing: -.06em;
      }

      .cls-30 {
        letter-spacing: -.06em;
      }

      .cls-31 {
        letter-spacing: -.02em;
      }

      .cls-32 {
        letter-spacing: -.03em;
      }

      .cls-33 {
        letter-spacing: -.03em;
      }

      .cls-34 {
        letter-spacing: -.03em;
      }

      .cls-35 {
        clip-path: url(#clippath-1);
      }

      .cls-36 {
        letter-spacing: -.07em;
      }

      .cls-37 {
        letter-spacing: -.04em;
      }

      .cls-38 {
        letter-spacing: -.06em;
      }

      .cls-39 {
        letter-spacing: -.05em;
      }

      .cls-40 {
        font-size: 15.2px;
      }

      .cls-40, .cls-22, .cls-41, .cls-6 {
        fill: #001689;
      }

      .cls-40, .cls-42 {
        font-family: CanelaText-Medium, 'Canela Text';
        font-weight: 500;
      }

      .cls-43 {
        letter-spacing: -.03em;
      }

      .cls-44 {
        letter-spacing: -.05em;
      }

      .cls-16 {
        stroke: #fd5bfb;
        stroke-width: 2.88px;
      }

      .cls-45 {
        letter-spacing: -.04em;
      }

      .cls-46 {
        letter-spacing: -.05em;
      }

      .cls-47 {
        letter-spacing: -.09em;
      }

      .cls-48 {
        letter-spacing: -.05em;
      }

      .cls-49 {
        letter-spacing: -.05em;
      }

      .cls-50 {
        letter-spacing: -.02em;
      }

      .cls-22, .cls-41 {
        font-size: 12.4px;
      }

      .cls-51 {
        letter-spacing: -.02em;
      }

      .cls-52 {
        letter-spacing: 0em;
      }

      .cls-53 {
        letter-spacing: -.06em;
      }

      .cls-54 {
        letter-spacing: -.03em;
      }

      .cls-55 {
        letter-spacing: -.04em;
      }

      .cls-3 {
        fill: url(#_10_lpi_40_2);
      }

      .cls-56 {
        letter-spacing: -.04em;
      }

      .cls-4 {
        fill: #fff;
      }

      .cls-5 {
        fill: #fd5bfb;
      }

      .cls-57 {
        letter-spacing: -.04em;
      }

      .cls-58 {
        letter-spacing: -.03em;
      }

      .cls-17 {
        stroke: #001689;
        stroke-miterlimit: 10;
        stroke-width: .5px;
      }
    </style>
    <clipPath id="clippath">
      <rect class="cls-2" x="0" y="-245.75" width="340.16" height="226.77"/>
    </clipPath>
    <clipPath id="clippath-1">
      <rect class="cls-2" x="0" y="-246.23" width="340.16" height="228.02"/>
    </clipPath>
    <pattern id="USGS_20_Macchia_2" data-name="USGS 20 Macchia 2" x="0" y="0" width="72" height="72" patternTransform="translate(-2296.15 -2379.97) scale(.74)" patternUnits="userSpaceOnUse" viewBox="0 0 72 72">
      <g>
        <rect class="cls-2" width="72" height="72"/>
        <g>
          <path class="cls-5" d="M15.5,73.29c-.34,0-.68-.14-.92-.38-.24-.24-.38-.58-.38-.92s.14-.68.38-.92c.48-.48,1.36-.48,1.84,0,.24.24.38.58.38.92s-.14.68-.38.92c-.24.24-.57.38-.92.38Z"/>
          <path class="cls-5" d="M26.25,73.29c-.34,0-.67-.14-.92-.38-.24-.25-.38-.58-.38-.92s.14-.67.38-.92c.49-.48,1.35-.48,1.84,0,.24.24.38.58.38.92s-.14.68-.38.92c-.24.24-.58.38-.92.38Z"/>
          <path class="cls-5" d="M30.25,74.29c-.34,0-.67-.14-.92-.38-.24-.24-.38-.58-.38-.92s.14-.68.38-.92c.49-.48,1.36-.48,1.84,0,.24.24.38.58.38.92s-.14.68-.38.92c-.24.24-.58.38-.92.38Z"/>
          <path class="cls-5" d="M35.25,74.04c-.34,0-.68-.14-.92-.38-.24-.24-.38-.58-.38-.92s.14-.68.38-.92c.49-.48,1.36-.48,1.84,0,.25.25.38.58.38.92s-.13.67-.38.92c-.24.24-.58.38-.92.38Z"/>
          <path class="cls-5" d="M43.25,74.54c-.34,0-.68-.14-.92-.38-.24-.24-.38-.58-.38-.92s.14-.68.38-.92c.49-.48,1.36-.48,1.84,0,.24.24.38.58.38.92s-.14.68-.38.92c-.24.24-.57.38-.92.38Z"/>
          <path class="cls-5" d="M48.25,73.54c-.34,0-.67-.14-.92-.38-.24-.24-.38-.58-.38-.92s.14-.68.38-.92c.49-.48,1.36-.48,1.84,0,.24.24.38.58.38.92s-.14.68-.38.92c-.24.24-.58.38-.92.38Z"/>
          <path class="cls-5" d="M56.5,74.54c-.34,0-.68-.14-.92-.38-.24-.24-.38-.58-.38-.92s.14-.68.38-.92c.49-.48,1.36-.48,1.84,0,.24.24.38.58.38.92s-.14.68-.38.92c-.24.24-.57.38-.92.38Z"/>
          <path class="cls-5" d="M63.5,73.79c-.34,0-.67-.14-.92-.38-.24-.24-.38-.58-.38-.92s.14-.68.38-.92c.48-.48,1.36-.48,1.84,0,.24.24.38.58.38.92s-.14.68-.38.92c-.24.24-.58.38-.92.38Z"/>
          <path class="cls-5" d="M69.25,74.04c-.34,0-.67-.14-.92-.38-.24-.25-.38-.58-.38-.92s.14-.68.38-.92c.49-.48,1.36-.48,1.84,0,.24.24.38.58.38.92s-.14.68-.38.92c-.24.24-.58.38-.92.38Z"/>
          <path class="cls-5" d="M56.5,74.54c-.34,0-.68-.14-.92-.38-.24-.24-.38-.58-.38-.92s.14-.68.38-.92c.49-.48,1.36-.48,1.84,0,.24.24.38.58.38.92s-.14.68-.38.92c-.24.24-.57.38-.92.38Z"/>
          <path class="cls-5" d="M2.25,74.29c-.34,0-.68-.14-.92-.38-.24-.24-.38-.58-.38-.92s.14-.68.38-.92c.49-.48,1.36-.48,1.84,0,.24.24.38.58.38.92s-.14.68-.38.92c-.24.24-.58.38-.92.38Z"/>
        </g>
        <g>
          <path class="cls-5" d="M72.5,5.79c-.34,0-.68-.14-.92-.38-.24-.24-.38-.58-.38-.92s.14-.67.38-.92c.5-.49,1.36-.48,1.84,0,.24.25.38.58.38.92s-.14.68-.38.92c-.24.24-.58.38-.92.38Z"/>
          <path class="cls-5" d="M73,30.79c-.34,0-.67-.14-.92-.38-.24-.24-.38-.58-.38-.92s.14-.68.38-.92c.49-.48,1.35-.48,1.84,0,.25.25.38.58.38.92s-.13.67-.38.92c-.24.24-.58.38-.92.38Z"/>
          <path class="cls-5" d="M72.25,34.79c-.34,0-.67-.14-.92-.38-.24-.24-.38-.58-.38-.92s.14-.68.38-.92c.48-.48,1.36-.48,1.84,0,.24.24.38.58.38.92s-.14.68-.38.92c-.24.24-.58.38-.92.38Z"/>
          <path class="cls-5" d="M72.25,26.29c-.34,0-.67-.14-.92-.38-.24-.25-.38-.58-.38-.92s.14-.67.38-.92c.49-.48,1.35-.48,1.84,0,.24.24.38.58.38.92s-.14.68-.38.92c-.24.24-.58.38-.92.38Z"/>
          <path class="cls-5" d="M73.25,48.04c-.34,0-.67-.14-.92-.38-.24-.24-.38-.58-.38-.92s.14-.67.38-.92c.49-.48,1.35-.48,1.84,0,.24.24.38.58.38.92s-.14.68-.38.92c-.24.24-.58.38-.92.38Z"/>
          <path class="cls-5" d="M73,68.04c-.34,0-.68-.14-.92-.38-.24-.24-.38-.58-.38-.92s.14-.68.38-.92c.49-.48,1.35-.48,1.84,0,.24.24.38.58.38.92s-.13.68-.38.92c-.24.24-.58.38-.92.38Z"/>
        </g>
        <g>
          <path class="cls-5" d="M21.75,5.79c-.34,0-.67-.14-.92-.38-.24-.24-.38-.58-.38-.92s.14-.68.38-.92c.49-.48,1.36-.48,1.84,0,.24.24.38.58.38.92s-.14.67-.38.92c-.24.24-.58.38-.92.38Z"/>
          <path class="cls-5" d="M13,7.79c-.34,0-.68-.14-.92-.38-.24-.24-.38-.58-.38-.92s.14-.68.38-.92c.49-.48,1.36-.48,1.84,0,.24.25.38.58.38.92s-.14.68-.38.92c-.24.24-.57.38-.92.38Z"/>
          <path class="cls-5" d="M13.25,3.54c-.34,0-.67-.14-.92-.38-.24-.24-.38-.58-.38-.92s.14-.68.38-.92c.49-.49,1.36-.48,1.84,0,.24.25.38.58.38.92s-.14.68-.38.92c-.24.24-.58.38-.92.38Z"/>
          <path class="cls-5" d="M16.25,7.54c-.34,0-.68-.14-.92-.38-.24-.24-.38-.58-.38-.92s.14-.68.38-.92c.49-.48,1.36-.48,1.84,0,.24.24.38.58.38.92s-.14.68-.38.92c-.24.24-.58.38-.92.38Z"/>
          <path class="cls-5" d="M18.5,4.04c-.34,0-.67-.14-.92-.38-.24-.24-.38-.58-.38-.92s.14-.68.38-.92c.49-.48,1.36-.48,1.84,0,.24.24.38.58.38.92s-.14.68-.38.92c-.24.24-.58.38-.92.38Z"/>
          <path class="cls-5" d="M27.5,5.04c-.34,0-.67-.14-.92-.38-.24-.24-.38-.58-.38-.92s.14-.68.38-.92c.49-.48,1.36-.48,1.84,0,.24.24.38.58.38.92s-.14.68-.38.92c-.24.24-.58.38-.92.38Z"/>
          <path class="cls-5" d="M23.5,3.29c-.34,0-.67-.14-.92-.38-.24-.24-.38-.58-.38-.92s.14-.68.38-.92c.48-.48,1.36-.49,1.84,0,.24.24.38.58.38.92s-.14.68-.38.92c-.24.24-.58.38-.92.38Z"/>
          <path class="cls-5" d="M15.5,1.29c-.34,0-.68-.14-.92-.38-.24-.24-.38-.58-.38-.92s.14-.68.38-.92c.48-.48,1.36-.48,1.84,0,.24.24.38.58.38.92s-.14.68-.38.92c-.24.24-.57.38-.92.38Z"/>
          <path class="cls-5" d="M26.25,1.29c-.34,0-.67-.14-.92-.38-.24-.25-.38-.58-.38-.92s.14-.67.38-.92c.49-.48,1.35-.48,1.84,0,.24.24.38.58.38.92s-.14.68-.38.92c-.24.24-.58.38-.92.38Z"/>
          <path class="cls-5" d="M30.25,2.29c-.34,0-.67-.14-.92-.38-.24-.24-.38-.58-.38-.92s.14-.68.38-.92c.49-.48,1.36-.48,1.84,0,.24.24.38.58.38.92s-.14.68-.38.92c-.24.24-.58.38-.92.38Z"/>
          <path class="cls-5" d="M27.5,5.04c-.34,0-.67-.14-.92-.38-.24-.24-.38-.58-.38-.92s.14-.68.38-.92c.49-.48,1.36-.48,1.84,0,.24.24.38.58.38.92s-.14.68-.38.92c-.24.24-.58.38-.92.38Z"/>
          <path class="cls-5" d="M26.75,7.79c-.34,0-.68-.14-.92-.38-.24-.24-.38-.58-.38-.92s.14-.68.38-.92c.49-.48,1.35-.49,1.84,0,.24.24.38.58.38.92s-.14.68-.38.92c-.24.24-.58.38-.92.38Z"/>
          <path class="cls-5" d="M24.75,10.79c-.34,0-.67-.14-.92-.38-.24-.25-.38-.58-.38-.92s.14-.67.38-.92c.49-.48,1.36-.48,1.84,0,.24.25.38.58.38.92s-.14.67-.38.92c-.24.24-.58.38-.92.38Z"/>
          <path class="cls-5" d="M20.75,9.04c-.34,0-.67-.14-.92-.38-.24-.24-.38-.58-.38-.92s.14-.68.38-.92c.49-.48,1.36-.48,1.84,0,.24.24.38.58.38.92s-.14.68-.38.92c-.24.24-.58.38-.92.38Z"/>
          <path class="cls-5" d="M20.5,12.54c-.34,0-.67-.14-.92-.38-.24-.24-.38-.58-.38-.92s.14-.68.38-.92c.49-.48,1.36-.48,1.84,0,.24.24.38.58.38.92s-.14.68-.38.92c-.24.24-.58.38-.92.38Z"/>
          <path class="cls-5" d="M15.5,11.54c-.34,0-.67-.14-.92-.38-.24-.24-.38-.58-.38-.92s.14-.68.38-.92c.48-.48,1.36-.48,1.84,0,.24.24.38.58.38.92s-.14.68-.38.92c-.24.24-.58.38-.92.38Z"/>
          <path class="cls-5" d="M18.75,14.79c-.34,0-.67-.14-.92-.38-.24-.24-.38-.58-.38-.92s.14-.68.38-.92c.48-.48,1.36-.48,1.84,0,.24.24.38.58.38.92s-.14.68-.38.92c-.24.24-.58.38-.92.38Z"/>
          <path class="cls-5" d="M21.25,18.54c-.34,0-.67-.14-.92-.38-.24-.24-.38-.58-.38-.92s.14-.68.38-.92c.48-.48,1.35-.48,1.84,0,.24.24.38.58.38.92s-.14.68-.38.92c-.24.24-.58.38-.92.38Z"/>
          <path class="cls-5" d="M24,19.29c-.34,0-.68-.14-.92-.38-.24-.24-.38-.58-.38-.92s.14-.67.38-.92c.49-.48,1.36-.48,1.84,0,.24.25.38.58.38.92s-.14.68-.38.92c-.24.24-.58.38-.92.38Z"/>
          <path class="cls-5" d="M27,17.54c-.34,0-.68-.14-.92-.38-.24-.24-.38-.58-.38-.92s.14-.68.38-.92c.48-.48,1.36-.48,1.84,0,.24.24.38.58.38.92s-.14.68-.38.92c-.24.24-.57.38-.92.38Z"/>
          <path class="cls-5" d="M26.5,14.29c-.34,0-.68-.14-.92-.38-.24-.24-.38-.58-.38-.92s.14-.68.38-.92c.49-.48,1.36-.48,1.84,0,.24.24.38.58.38.92s-.14.68-.38.92c-.24.24-.58.38-.92.38Z"/>
          <path class="cls-5" d="M28.5,12.04c-.34,0-.68-.14-.92-.38-.24-.24-.38-.58-.38-.92s.14-.68.38-.92c.49-.48,1.36-.48,1.84,0,.24.25.38.58.38.92s-.14.67-.38.92c-.24.24-.57.38-.92.38Z"/>
          <path class="cls-5" d="M32.75,12.04c-.34,0-.68-.14-.92-.38-.24-.24-.38-.58-.38-.92s.14-.68.38-.92c.49-.48,1.36-.48,1.84,0,.24.24.38.58.38.92s-.14.68-.38.92c-.24.24-.58.38-.92.38Z"/>
          <path class="cls-5" d="M31,16.79c-.34,0-.67-.14-.92-.38-.24-.24-.38-.58-.38-.92s.14-.68.38-.92c.5-.49,1.36-.48,1.84,0,.24.24.38.58.38.92s-.14.68-.38.92c-.24.24-.58.38-.92.38Z"/>
          <path class="cls-5" d="M33.25,20.29c-.34,0-.68-.14-.92-.38-.24-.24-.38-.58-.38-.92s.14-.68.38-.92c.49-.48,1.36-.48,1.84,0,.24.25.38.58.38.92s-.14.68-.38.92c-.24.24-.58.38-.92.38Z"/>
          <path class="cls-5" d="M29.75,20.54c-.34,0-.68-.14-.92-.38-.24-.24-.38-.58-.38-.92s.14-.68.38-.92c.49-.48,1.36-.48,1.84,0,.24.24.38.58.38.92s-.14.68-.38.92c-.24.24-.57.38-.92.38Z"/>
          <path class="cls-5" d="M26.25,21.29c-.34,0-.67-.14-.92-.38-.24-.24-.38-.58-.38-.92s.14-.67.38-.92c.49-.48,1.36-.48,1.84,0,.24.24.38.58.38.92s-.14.68-.38.92c-.24.24-.58.38-.92.38Z"/>
          <path class="cls-5" d="M35.75,15.79c-.34,0-.68-.14-.92-.38-.24-.24-.38-.58-.38-.92s.14-.68.38-.92c.49-.48,1.36-.48,1.84,0,.25.25.38.58.38.92s-.13.67-.38.92c-.24.24-.58.38-.92.38Z"/>
          <path class="cls-5" d="M30.5,8.54c-.34,0-.68-.14-.92-.38-.24-.24-.38-.58-.38-.92s.14-.68.38-.92c.49-.48,1.36-.48,1.84,0,.24.24.38.58.38.92s-.14.68-.38.92c-.24.24-.57.38-.92.38Z"/>
          <path class="cls-5" d="M32.5,5.54c-.34,0-.68-.14-.92-.38-.24-.24-.38-.58-.38-.92s.14-.68.38-.92c.48-.48,1.36-.48,1.84,0,.24.24.38.58.38.92s-.14.68-.38.92c-.24.24-.57.38-.92.38Z"/>
          <path class="cls-5" d="M35.25,2.04c-.34,0-.68-.14-.92-.38-.24-.24-.38-.58-.38-.92s.14-.68.38-.92c.49-.48,1.36-.48,1.84,0,.25.25.38.58.38.92s-.13.67-.38.92c-.24.24-.58.38-.92.38Z"/>
          <path class="cls-5" d="M36,5.29c-.34,0-.68-.14-.92-.38-.24-.24-.38-.58-.38-.92s.14-.68.38-.92c.49-.49,1.36-.48,1.84,0,.25.25.38.58.38.92s-.13.67-.38.92c-.24.24-.58.38-.92.38Z"/>
          <path class="cls-5" d="M35.75,8.29c-.34,0-.67-.14-.92-.38-.24-.24-.38-.58-.38-.92s.14-.68.38-.92c.49-.48,1.36-.48,1.84,0,.25.25.38.58.38.92s-.13.67-.38.92c-.24.24-.58.38-.92.38Z"/>
          <path class="cls-5" d="M36,12.04c-.34,0-.68-.14-.92-.38-.24-.24-.38-.58-.38-.92s.14-.68.38-.92c.49-.48,1.36-.48,1.84,0,.25.25.38.58.38.92s-.13.67-.38.92c-.24.24-.58.38-.92.38Z"/>
          <path class="cls-5" d="M39.5,3.79c-.34,0-.67-.14-.92-.38-.24-.24-.38-.58-.38-.92s.14-.68.38-.92c.48-.48,1.36-.48,1.84,0,.24.24.38.58.38.92s-.14.68-.38.92c-.24.24-.58.38-.92.38Z"/>
          <path class="cls-5" d="M40.25,7.54c-.34,0-.67-.14-.92-.38-.24-.24-.38-.58-.38-.92s.14-.68.38-.92c.49-.48,1.36-.48,1.84,0,.24.24.38.58.38.92s-.14.68-.38.92c-.24.24-.58.38-.92.38Z"/>
          <path class="cls-5" d="M39.75,11.54c-.34,0-.67-.14-.92-.38-.24-.24-.38-.58-.38-.92s.14-.68.38-.92c.48-.48,1.36-.49,1.84,0,.24.24.38.58.38.92s-.14.67-.38.92c-.24.24-.58.38-.92.38Z"/>
          <path class="cls-5" d="M40,16.04c-.34,0-.67-.14-.92-.38-.24-.24-.38-.58-.38-.92s.14-.68.38-.92c.48-.48,1.36-.48,1.84,0,.24.24.38.58.38.92s-.14.68-.38.92c-.24.24-.58.38-.92.38Z"/>
          <path class="cls-5" d="M41.5,19.54c-.34,0-.67-.14-.92-.38-.24-.24-.38-.58-.38-.92s.14-.68.38-.92c.48-.48,1.36-.49,1.84,0,.24.24.38.58.38.92s-.14.68-.38.92c-.24.24-.58.38-.92.38Z"/>
          <path class="cls-5" d="M36.75,19.29c-.34,0-.67-.14-.92-.38-.24-.24-.38-.58-.38-.92s.14-.68.38-.92c.48-.48,1.36-.48,1.84,0,.24.24.38.58.38.92s-.14.68-.38.92c-.24.24-.58.38-.92.38Z"/>
          <path class="cls-5" d="M38,23.79c-.34,0-.67-.14-.92-.38-.24-.24-.38-.58-.38-.92s.14-.68.38-.92c.49-.48,1.36-.48,1.84,0,.24.24.38.58.38.92s-.14.68-.38.92c-.24.24-.58.38-.92.38Z"/>
          <path class="cls-5" d="M33.75,23.54c-.34,0-.67-.14-.92-.38-.24-.24-.38-.58-.38-.92s.14-.68.38-.92c.49-.48,1.36-.48,1.84,0,.24.24.38.58.38.92s-.14.68-.38.92c-.24.24-.58.38-.92.38Z"/>
          <path class="cls-5" d="M45.5,21.04c-.34,0-.68-.14-.92-.38-.24-.24-.38-.58-.38-.92s.14-.68.38-.92c.49-.48,1.36-.48,1.84,0,.24.24.38.58.38.92s-.14.68-.38.92c-.24.24-.57.38-.92.38Z"/>
          <path class="cls-5" d="M44.5,17.54c-.34,0-.67-.14-.92-.38-.24-.24-.38-.58-.38-.92s.14-.68.38-.92c.49-.48,1.36-.48,1.84,0,.24.24.38.58.38.92s-.14.68-.38.92c-.24.24-.58.38-.92.38Z"/>
          <path class="cls-5" d="M43.5,14.04c-.34,0-.68-.14-.92-.38-.24-.24-.38-.58-.38-.92s.14-.68.38-.92c.49-.48,1.36-.48,1.84,0,.24.24.38.58.38.92s-.14.68-.38.92c-.24.24-.57.38-.92.38Z"/>
          <path class="cls-5" d="M43.75,10.04c-.34,0-.68-.14-.92-.38-.24-.24-.38-.58-.38-.92s.14-.68.38-.92c.49-.48,1.36-.48,1.84,0,.24.24.38.58.38.92s-.14.68-.38.92c-.24.24-.58.38-.92.38Z"/>
          <path class="cls-5" d="M43.5,5.79c-.34,0-.67-.14-.92-.38-.24-.24-.38-.58-.38-.92s.14-.68.38-.92c.49-.48,1.35-.48,1.84,0,.24.24.38.58.38.92s-.14.68-.38.92c-.24.24-.58.38-.92.38Z"/>
          <path class="cls-5" d="M43.25,2.54c-.34,0-.68-.14-.92-.38-.24-.24-.38-.58-.38-.92s.14-.68.38-.92c.49-.48,1.36-.48,1.84,0,.24.24.38.58.38.92s-.14.68-.38.92c-.24.24-.57.38-.92.38Z"/>
          <path class="cls-5" d="M48.25,1.54c-.34,0-.67-.14-.92-.38-.24-.24-.38-.58-.38-.92s.14-.68.38-.92c.49-.48,1.36-.48,1.84,0,.24.24.38.58.38.92s-.14.68-.38.92c-.24.24-.58.38-.92.38Z"/>
          <path class="cls-5" d="M47.5,5.79c-.34,0-.68-.14-.92-.38-.24-.24-.38-.58-.38-.92s.14-.68.38-.92c.49-.48,1.36-.48,1.84,0,.24.24.38.58.38.92s-.14.68-.38.92c-.24.24-.58.38-.92.38Z"/>
          <path class="cls-5" d="M51,5.79c-.34,0-.67-.14-.92-.38-.24-.24-.38-.58-.38-.92s.14-.67.38-.92c.48-.48,1.35-.48,1.84,0,.24.24.38.58.38.92s-.14.68-.38.92c-.24.24-.58.38-.92.38Z"/>
          <path class="cls-5" d="M50.75,9.29c-.34,0-.67-.14-.92-.38-.24-.24-.38-.58-.38-.92s.14-.67.38-.92c.49-.48,1.36-.48,1.84,0,.25.24.38.58.38.92s-.13.68-.38.92c-.24.24-.58.38-.92.38Z"/>
          <path class="cls-5" d="M47,9.04c-.34,0-.67-.14-.92-.38-.24-.24-.38-.58-.38-.92s.14-.68.38-.92c.48-.48,1.36-.48,1.84,0,.24.24.38.58.38.92s-.14.68-.38.92c-.24.24-.58.38-.92.38Z"/>
          <path class="cls-5" d="M47.25,13.54c-.34,0-.67-.14-.92-.38-.24-.24-.38-.58-.38-.92s.14-.68.38-.92c.49-.48,1.35-.48,1.84,0,.24.24.38.58.38.92s-.14.68-.38.92c-.24.24-.58.38-.92.38Z"/>
          <path class="cls-5" d="M50.75,13.54c-.34,0-.67-.14-.92-.38-.24-.24-.38-.58-.38-.92s.14-.68.38-.92c.49-.48,1.36-.48,1.84,0,.25.24.38.58.38.92s-.14.68-.38.92c-.24.24-.58.38-.92.38Z"/>
          <path class="cls-5" d="M48,17.04c-.34,0-.67-.14-.92-.38-.24-.24-.38-.58-.38-.92s.14-.68.38-.92c.49-.48,1.35-.48,1.84,0,.24.24.38.58.38.92s-.14.68-.38.92c-.24.24-.58.38-.92.38Z"/>
          <path class="cls-5" d="M49.5,21.29c-.34,0-.67-.14-.92-.38-.24-.24-.38-.58-.38-.92s.14-.67.38-.92c.49-.48,1.35-.48,1.84,0,.24.24.38.58.38.92s-.14.68-.38.92c-.24.24-.58.38-.92.38Z"/>
          <path class="cls-5" d="M51.25,24.54c-.34,0-.67-.14-.92-.38-.24-.24-.38-.58-.38-.92s.14-.68.38-.92c.49-.48,1.35-.48,1.84,0,.24.24.38.58.38.92s-.14.68-.38.92c-.24.24-.58.38-.92.38Z"/>
          <path class="cls-5" d="M53.75,21.79c-.34,0-.68-.14-.92-.38-.24-.24-.38-.58-.38-.92s.14-.68.38-.92c.49-.48,1.36-.48,1.84,0,.24.24.38.58.38.92s-.14.68-.38.92c-.24.24-.57.38-.92.38Z"/>
          <path class="cls-5" d="M52.25,18.29c-.34,0-.67-.14-.92-.38-.24-.24-.38-.58-.38-.92s.14-.68.38-.92c.48-.48,1.36-.48,1.84,0,.24.24.38.58.38.92s-.14.68-.38.92c-.24.24-.58.38-.92.38Z"/>
          <path class="cls-5" d="M54.5,15.29c-.34,0-.67-.14-.92-.38-.24-.24-.38-.58-.38-.92s.14-.68.38-.92c.48-.48,1.35-.48,1.84,0,.24.24.38.58.38.92s-.14.68-.38.92c-.24.24-.58.38-.92.38Z"/>
          <path class="cls-5" d="M54.75,11.04c-.34,0-.68-.14-.92-.38-.24-.24-.38-.58-.38-.92s.14-.68.38-.92c.49-.48,1.35-.48,1.84,0,.24.24.38.58.38.92s-.14.68-.38.92c-.24.24-.58.38-.92.38Z"/>
          <path class="cls-5" d="M55,6.04c-.34,0-.68-.14-.92-.38-.24-.24-.38-.58-.38-.92s.14-.68.38-.92c.49-.48,1.35-.48,1.84,0,.24.24.38.58.38.92s-.14.68-.38.92c-.24.24-.58.38-.92.38Z"/>
          <path class="cls-5" d="M58.25,7.04c-.34,0-.67-.14-.92-.38-.24-.25-.38-.58-.38-.92s.14-.67.38-.92c.49-.48,1.35-.48,1.84,0,.24.24.38.58.38.92s-.14.68-.38.92c-.24.24-.58.38-.92.38Z"/>
          <path class="cls-5" d="M56.5,2.54c-.34,0-.68-.14-.92-.38-.24-.24-.38-.58-.38-.92s.14-.68.38-.92c.49-.48,1.36-.48,1.84,0,.24.24.38.58.38.92s-.14.68-.38.92c-.24.24-.57.38-.92.38Z"/>
          <path class="cls-5" d="M60.25,3.54c-.34,0-.67-.14-.92-.38-.24-.24-.38-.58-.38-.92s.14-.68.38-.92c.49-.48,1.36-.48,1.84,0,.24.24.38.58.38.92s-.14.68-.38.92c-.24.24-.58.38-.92.38Z"/>
          <path class="cls-5" d="M63.5,1.79c-.34,0-.67-.14-.92-.38-.24-.24-.38-.58-.38-.92s.14-.68.38-.92c.48-.48,1.36-.48,1.84,0,.24.24.38.58.38.92s-.14.68-.38.92c-.24.24-.58.38-.92.38Z"/>
          <path class="cls-5" d="M65.5,3.79c-.34,0-.68-.14-.92-.38-.24-.24-.38-.58-.38-.92s.14-.68.38-.92c.49-.49,1.37-.48,1.84,0,.24.24.38.58.38.92s-.14.68-.38.92c-.24.24-.58.38-.92.38Z"/>
          <path class="cls-5" d="M62,6.79c-.34,0-.67-.14-.92-.38-.24-.24-.38-.58-.38-.92s.14-.68.38-.92c.48-.48,1.37-.48,1.84,0,.24.24.38.58.38.92s-.14.68-.38.92c-.24.24-.58.38-.92.38Z"/>
          <path class="cls-5" d="M61.25,10.54c-.34,0-.67-.14-.92-.38-.24-.24-.38-.58-.38-.92s.14-.67.38-.92c.49-.48,1.35-.48,1.84,0,.24.24.38.58.38.92s-.14.68-.38.92c-.24.24-.58.38-.92.38Z"/>
          <path class="cls-5" d="M58.5,12.79c-.34,0-.67-.14-.92-.38-.24-.24-.38-.58-.38-.92s.14-.68.38-.92c.49-.48,1.36-.48,1.84,0,.24.24.38.58.38.92s-.14.68-.38.92c-.24.24-.58.38-.92.38Z"/>
          <path class="cls-5" d="M61,15.54c-.34,0-.67-.14-.92-.38-.24-.24-.38-.58-.38-.92s.14-.68.38-.92c.48-.48,1.36-.48,1.84,0,.24.24.38.58.38.92s-.14.68-.38.92c-.24.24-.58.38-.92.38Z"/>
          <path class="cls-5" d="M64.75,16.54c-.34,0-.67-.14-.92-.38-.24-.24-.38-.58-.38-.92s.14-.68.38-.92c.49-.48,1.36-.48,1.84,0,.24.24.38.58.38.92s-.14.68-.38.92c-.24.24-.58.38-.92.38Z"/>
          <path class="cls-5" d="M62.75,18.79c-.34,0-.67-.14-.92-.38-.24-.24-.38-.58-.38-.92s.14-.68.38-.92c.48-.48,1.35-.48,1.84,0,.24.24.38.58.38.92s-.14.68-.38.92c-.24.24-.58.38-.92.38Z"/>
          <path class="cls-5" d="M59.25,19.29c-.34,0-.67-.14-.92-.38-.24-.24-.38-.58-.38-.92s.14-.68.38-.92c.49-.48,1.36-.48,1.84,0,.24.24.38.58.38.92s-.14.68-.38.92c-.24.24-.58.38-.92.38Z"/>
          <path class="cls-5" d="M56.5,18.79c-.34,0-.67-.14-.92-.38-.24-.24-.38-.58-.38-.92s.14-.68.38-.92c.49-.48,1.36-.48,1.84,0,.24.24.38.58.38.92s-.14.68-.38.92c-.24.24-.58.38-.92.38Z"/>
          <path class="cls-5" d="M58.25,23.04c-.34,0-.68-.14-.92-.38-.24-.25-.38-.58-.38-.92s.14-.67.38-.92c.49-.48,1.35-.48,1.84,0,.24.24.38.58.38.92s-.14.68-.38.92c-.24.24-.57.38-.92.38Z"/>
          <path class="cls-5" d="M62.75,21.79c-.34,0-.67-.14-.92-.38-.24-.24-.38-.58-.38-.92s.14-.68.38-.92c.48-.48,1.35-.48,1.84,0,.24.24.38.58.38.92s-.14.68-.38.92c-.24.24-.58.38-.92.38Z"/>
          <path class="cls-5" d="M67,22.79c-.34,0-.68-.14-.92-.38-.24-.25-.38-.58-.38-.92s.14-.67.38-.92c.49-.49,1.37-.48,1.84,0,.24.24.38.58.38.92s-.14.68-.38.92c-.24.24-.58.38-.92.38Z"/>
          <path class="cls-5" d="M67,19.29c-.34,0-.68-.14-.92-.38-.24-.24-.38-.58-.38-.92s.14-.68.38-.92c.5-.49,1.36-.48,1.84,0,.24.24.38.58.38.92s-.14.68-.38.92c-.24.24-.58.38-.92.38Z"/>
          <path class="cls-5" d="M64,12.54c-.34,0-.67-.14-.92-.38-.24-.24-.38-.58-.38-.92s.14-.68.38-.92c.49-.48,1.36-.48,1.84,0,.24.24.38.58.38.92s-.14.68-.38.92c-.24.24-.58.38-.92.38Z"/>
          <path class="cls-5" d="M64.75,8.79c-.34,0-.67-.14-.92-.38-.24-.24-.38-.58-.38-.92s.14-.68.38-.92c.49-.49,1.36-.48,1.84,0,.24.24.38.58.38.92s-.14.68-.38.92c-.24.24-.58.38-.92.38Z"/>
          <path class="cls-5" d="M68.25,6.79c-.34,0-.67-.14-.92-.38-.24-.24-.38-.58-.38-.92s.14-.67.38-.92c.48-.49,1.36-.49,1.84,0,.24.24.38.58.38.92s-.14.68-.38.92c-.24.24-.58.38-.92.38Z"/>
          <path class="cls-5" d="M69.25,2.04c-.34,0-.67-.14-.92-.38-.24-.25-.38-.58-.38-.92s.14-.68.38-.92c.49-.48,1.36-.48,1.84,0,.24.24.38.58.38.92s-.14.68-.38.92c-.24.24-.58.38-.92.38Z"/>
          <path class="cls-5" d="M68.25,13.29c-.34,0-.68-.14-.92-.38-.24-.24-.38-.58-.38-.92s.14-.68.38-.92c.49-.48,1.36-.48,1.84,0,.24.24.38.58.38.92s-.14.68-.38.92c-.24.24-.58.38-.92.38Z"/>
          <path class="cls-5" d="M70,16.79c-.34,0-.67-.14-.92-.38-.24-.24-.38-.58-.38-.92s.14-.68.38-.92c.48-.48,1.36-.48,1.84,0,.24.24.38.58.38.92s-.14.68-.38.92c-.24.24-.58.38-.92.38Z"/>
          <path class="cls-5" d="M55,6.04c-.34,0-.68-.14-.92-.38-.24-.24-.38-.58-.38-.92s.14-.68.38-.92c.49-.48,1.35-.48,1.84,0,.24.24.38.58.38.92s-.14.68-.38.92c-.24.24-.58.38-.92.38Z"/>
          <path class="cls-5" d="M56.5,2.54c-.34,0-.68-.14-.92-.38-.24-.24-.38-.58-.38-.92s.14-.68.38-.92c.49-.48,1.36-.48,1.84,0,.24.24.38.58.38.92s-.14.68-.38.92c-.24.24-.57.38-.92.38Z"/>
          <path class="cls-5" d="M52.5,3.29c-.34,0-.68-.14-.92-.38-.24-.24-.38-.58-.38-.92s.14-.68.38-.92c.49-.48,1.36-.48,1.84,0,.24.24.38.58.38.92s-.14.68-.38.92c-.24.24-.58.38-.92.38Z"/>
          <path class="cls-5" d="M22.5,22.79c-.34,0-.67-.14-.92-.38-.24-.24-.38-.58-.38-.92s.14-.68.38-.92c.49-.48,1.36-.48,1.84,0,.24.24.38.58.38.92s-.14.68-.38.92c-.24.24-.58.38-.92.38Z"/>
          <path class="cls-5" d="M18.5,20.04c-.34,0-.67-.14-.92-.38-.24-.24-.38-.58-.38-.92s.14-.67.38-.92c.49-.48,1.36-.48,1.84,0,.24.25.38.58.38.92s-.14.68-.38.92c-.24.24-.57.38-.92.38Z"/>
          <path class="cls-5" d="M14.5,21.04c-.34,0-.68-.14-.92-.38-.24-.24-.38-.58-.38-.92s.14-.67.38-.92c.49-.48,1.36-.48,1.84,0,.24.25.38.58.38.92s-.14.68-.38.92c-.24.24-.58.38-.92.38Z"/>
          <path class="cls-5" d="M15.5,17.04c-.34,0-.67-.14-.92-.38-.24-.24-.38-.58-.38-.92s.14-.68.38-.92c.49-.48,1.35-.48,1.84,0,.24.24.38.58.38.92s-.14.68-.38.92c-.24.24-.58.38-.92.38Z"/>
          <path class="cls-5" d="M13.25,14.04c-.34,0-.67-.14-.92-.38-.24-.24-.38-.58-.38-.92s.14-.67.38-.92c.49-.49,1.36-.48,1.84,0,.24.25.38.58.38.92s-.14.67-.38.92c-.24.24-.58.38-.92.38Z"/>
          <path class="cls-5" d="M11,11.29c-.34,0-.67-.14-.92-.38-.24-.24-.38-.58-.38-.92s.14-.67.38-.92c.49-.48,1.36-.48,1.84,0,.24.24.38.58.38.92s-.14.68-.38.92c-.24.24-.58.38-.92.38Z"/>
          <path class="cls-5" d="M11,17.54c-.34,0-.68-.14-.92-.38-.24-.24-.38-.58-.38-.92s.14-.68.38-.92c.49-.48,1.36-.48,1.84,0,.24.24.38.58.38.92s-.14.68-.38.92c-.24.24-.57.38-.92.38Z"/>
          <path class="cls-5" d="M14.5,21.04c-.34,0-.68-.14-.92-.38-.24-.24-.38-.58-.38-.92s.14-.67.38-.92c.49-.48,1.36-.48,1.84,0,.24.25.38.58.38.92s-.14.68-.38.92c-.24.24-.58.38-.92.38Z"/>
          <path class="cls-5" d="M17,23.29c-.34,0-.67-.14-.92-.38-.24-.24-.38-.58-.38-.92s.14-.68.38-.92c.48-.48,1.36-.49,1.84,0,.24.24.38.58.38.92s-.14.67-.38.92c-.24.24-.58.38-.92.38Z"/>
          <path class="cls-5" d="M12.5,24.79c-.34,0-.68-.14-.92-.38-.24-.24-.38-.58-.38-.92s.14-.68.38-.92c.49-.49,1.36-.48,1.84,0,.24.24.38.58.38.92s-.14.68-.38.92c-.24.24-.58.38-.92.38Z"/>
          <path class="cls-5" d="M10,21.79c-.34,0-.67-.14-.92-.38-.24-.24-.38-.58-.38-.92s.14-.67.38-.92c.48-.48,1.36-.48,1.84,0,.24.25.38.58.38.92s-.14.68-.38.92c-.24.24-.58.38-.92.38Z"/>
          <path class="cls-5" d="M22.5,15.29c-.34,0-.68-.14-.92-.38-.24-.24-.38-.58-.38-.92s.14-.68.38-.92c.49-.48,1.36-.48,1.84,0,.24.24.38.58.38.92s-.14.68-.38.92c-.24.24-.57.38-.92.38Z"/>
          <path class="cls-5" d="M.5,5.79c-.34,0-.68-.14-.92-.38-.24-.24-.38-.58-.38-.92s.14-.67.38-.92c.5-.49,1.36-.48,1.84,0,.24.25.38.58.38.92s-.14.68-.38.92c-.24.24-.58.38-.92.38Z"/>
          <path class="cls-5" d="M1.75,15.29c-.34,0-.68-.14-.92-.38-.24-.24-.38-.58-.38-.92s.14-.68.38-.92c.49-.48,1.36-.49,1.84,0,.24.24.38.58.38.92s-.14.68-.38.92c-.24.24-.58.38-.92.38Z"/>
          <path class="cls-5" d="M3.75,18.54c-.34,0-.68-.14-.92-.38-.24-.24-.38-.58-.38-.92s.14-.68.38-.92c.49-.49,1.36-.48,1.84,0,.25.25.38.58.38.92s-.13.68-.38.92c-.24.24-.58.38-.92.38Z"/>
          <path class="cls-5" d="M2.25,11.79c-.34,0-.67-.14-.92-.38-.24-.24-.38-.58-.38-.92s.14-.68.38-.92c.49-.48,1.35-.48,1.84,0,.24.24.38.58.38.92s-.14.68-.38.92c-.24.24-.58.38-.92.38Z"/>
          <path class="cls-5" d="M7.5,4.54c-.34,0-.67-.14-.92-.38-.24-.24-.38-.58-.38-.92s.14-.68.38-.92c.48-.48,1.36-.48,1.84,0,.24.24.38.58.38.92s-.14.68-.38.92c-.24.24-.58.38-.92.38Z"/>
          <path class="cls-5" d="M4.25,5.04c-.34,0-.67-.14-.92-.38-.24-.24-.38-.58-.38-.92s.14-.68.38-.92c.48-.48,1.36-.48,1.84,0,.24.24.38.58.38.92s-.14.67-.38.92c-.24.24-.58.38-.92.38Z"/>
          <path class="cls-5" d="M4.5,8.29c-.34,0-.67-.14-.92-.38-.24-.24-.38-.58-.38-.92s.14-.68.38-.92c.49-.48,1.36-.49,1.84,0,.24.25.38.58.38.92s-.14.68-.38.92c-.24.24-.58.38-.92.38Z"/>
          <path class="cls-5" d="M9.25,7.54c-.34,0-.67-.14-.92-.38-.24-.24-.38-.58-.38-.92s.14-.67.38-.92c.49-.48,1.36-.48,1.84,0,.24.25.38.58.38.92s-.14.68-.38.92c-.24.24-.58.38-.92.38Z"/>
          <path class="cls-5" d="M2.25,2.29c-.34,0-.68-.14-.92-.38-.24-.24-.38-.58-.38-.92s.14-.68.38-.92c.49-.48,1.36-.48,1.84,0,.24.24.38.58.38.92s-.14.68-.38.92c-.24.24-.58.38-.92.38Z"/>
          <path class="cls-5" d="M5.5,13.04c-.34,0-.67-.14-.92-.38-.24-.24-.38-.58-.38-.92s.14-.68.38-.92c.48-.48,1.36-.48,1.84,0,.24.25.38.58.38.92s-.14.67-.38.92c-.24.24-.58.38-.92.38Z"/>
          <path class="cls-5" d="M8.25,10.79c-.34,0-.67-.14-.92-.38-.24-.25-.38-.58-.38-.92s.14-.68.38-.92c.49-.48,1.36-.48,1.84,0,.24.24.38.58.38.92s-.14.68-.38.92c-.24.24-.58.38-.92.38Z"/>
          <path class="cls-5" d="M8.25,14.79c-.34,0-.67-.14-.92-.38-.24-.25-.38-.58-.38-.92s.14-.68.38-.92c.49-.48,1.36-.48,1.84,0,.24.24.38.58.38.92s-.14.67-.38.92c-.24.24-.58.38-.92.38Z"/>
          <path class="cls-5" d="M11,17.54c-.34,0-.68-.14-.92-.38-.24-.24-.38-.58-.38-.92s.14-.68.38-.92c.49-.48,1.36-.48,1.84,0,.24.24.38.58.38.92s-.14.68-.38.92c-.24.24-.57.38-.92.38Z"/>
          <path class="cls-5" d="M6.75,19.29c-.34,0-.67-.14-.92-.38-.24-.24-.38-.58-.38-.92s.14-.67.38-.92c.48-.48,1.36-.48,1.84,0,.24.25.38.58.38.92s-.14.68-.38.92c-.24.24-.58.38-.92.38Z"/>
          <path class="cls-5" d="M4.25,24.79c-.34,0-.67-.14-.92-.38-.24-.24-.38-.58-.38-.92s.14-.68.38-.92c.48-.48,1.36-.48,1.84,0,.24.24.38.58.38.92s-.14.67-.38.92c-.24.24-.58.38-.92.38Z"/>
          <path class="cls-5" d="M3.5,21.79c-.34,0-.68-.14-.92-.38-.24-.24-.38-.58-.38-.92s.14-.68.38-.92c.48-.48,1.36-.48,1.84,0,.24.25.38.58.38.92s-.14.67-.38.92c-.24.24-.58.38-.92.38Z"/>
          <path class="cls-5" d="M13.5,70.54c-.34,0-.67-.14-.92-.38-.24-.24-.38-.58-.38-.92s.14-.68.38-.92c.49-.48,1.36-.48,1.84,0,.24.25.38.58.38.92s-.14.68-.38.92c-.24.24-.58.38-.92.38Z"/>
          <path class="cls-5" d="M13.5,70.54c-.34,0-.67-.14-.92-.38-.24-.24-.38-.58-.38-.92s.14-.68.38-.92c.49-.48,1.36-.48,1.84,0,.24.25.38.58.38.92s-.14.68-.38.92c-.24.24-.58.38-.92.38Z"/>
          <path class="cls-5" d="M17,69.54c-.34,0-.67-.14-.92-.38-.24-.24-.38-.58-.38-.92s.14-.68.38-.92c.49-.48,1.36-.48,1.84,0,.24.24.38.58.38.92s-.14.68-.38.92c-.24.24-.58.38-.92.38Z"/>
          <path class="cls-5" d="M22.5,70.54c-.34,0-.67-.14-.92-.38-.24-.24-.38-.58-.38-.92s.14-.68.38-.92c.49-.48,1.36-.48,1.84,0,.24.24.38.58.38.92s-.14.68-.38.92c-.24.24-.57.38-.92.38Z"/>
          <path class="cls-5" d="M27.75,70.04c-.34,0-.68-.14-.92-.38-.24-.24-.38-.58-.38-.92s.14-.68.38-.92c.49-.48,1.36-.48,1.84,0,.24.24.38.58.38.92s-.14.68-.38.92c-.24.24-.57.38-.92.38Z"/>
          <path class="cls-5" d="M31.25,70.54c-.34,0-.67-.14-.92-.38-.24-.24-.38-.58-.38-.92s.14-.68.38-.92c.49-.48,1.36-.48,1.84,0,.24.24.38.58.38.92s-.14.67-.38.92c-.24.24-.58.38-.92.38Z"/>
          <path class="cls-5" d="M36.25,70.04c-.34,0-.67-.14-.92-.38-.24-.24-.38-.58-.38-.92s.14-.68.38-.92c.49-.48,1.36-.48,1.84,0,.24.24.38.58.38.92s-.14.68-.38.92c-.24.24-.58.38-.92.38Z"/>
          <path class="cls-5" d="M43.5,67.29c-.34,0-.68-.14-.92-.38-.24-.24-.38-.58-.38-.92s.14-.68.38-.92c.49-.48,1.36-.48,1.84,0,.24.24.38.58.38.92s-.14.68-.38.92c-.24.24-.58.38-.92.38Z"/>
          <path class="cls-5" d="M48.25,69.04c-.34,0-.67-.14-.92-.38-.24-.24-.38-.58-.38-.92s.14-.68.38-.92c.49-.48,1.36-.48,1.84,0,.24.24.38.58.38.92s-.14.68-.38.92c-.24.24-.58.38-.92.38Z"/>
          <path class="cls-5" d="M58.25,70.54c-.34,0-.67-.14-.92-.38-.24-.25-.38-.58-.38-.92s.14-.67.38-.92c.49-.48,1.35-.49,1.84,0,.24.24.38.58.38.92s-.14.68-.38.92c-.24.24-.58.38-.92.38Z"/>
          <path class="cls-5" d="M66.25,71.29c-.34,0-.68-.14-.92-.38-.24-.24-.38-.58-.38-.92s.14-.68.38-.92c.48-.48,1.36-.48,1.84,0,.24.24.38.58.38.92s-.14.68-.38.92c-.24.24-.57.38-.92.38Z"/>
          <path class="cls-5" d="M53.5,72.29c-.34,0-.68-.14-.92-.38-.24-.24-.38-.58-.38-.92s.14-.68.38-.92c.49-.48,1.36-.48,1.84,0,.24.24.38.58.38.92s-.14.68-.38.92c-.24.24-.58.38-.92.38Z"/>
          <path class="cls-5" d="M52.25,68.54c-.34,0-.68-.14-.92-.38-.24-.24-.38-.58-.38-.92s.14-.68.38-.92c.49-.48,1.36-.48,1.84,0,.24.24.38.58.38.92s-.14.68-.38.92c-.24.24-.58.38-.92.38Z"/>
          <path class="cls-5" d="M8.75,69.54c-.34,0-.67-.14-.92-.38-.24-.24-.38-.58-.38-.92s.14-.68.38-.92c.49-.48,1.36-.48,1.84,0,.24.24.38.58.38.92s-.14.68-.38.92c-.24.24-.58.38-.92.38Z"/>
          <path class="cls-5" d="M4.25,69.79c-.34,0-.68-.14-.92-.38-.24-.24-.38-.58-.38-.92s.14-.68.38-.92c.49-.48,1.35-.49,1.84,0,.24.25.38.58.38.92s-.14.68-.38.92c-.24.24-.58.38-.92.38Z"/>
          <path class="cls-5" d="M20.5,25.54c-.34,0-.67-.14-.92-.38-.24-.24-.38-.58-.38-.92s.14-.68.38-.92c.48-.48,1.36-.48,1.84,0,.24.24.38.58.38.92s-.14.68-.38.92c-.24.24-.57.38-.92.38Z"/>
          <path class="cls-5" d="M25,26.54c-.34,0-.67-.14-.92-.38-.24-.24-.38-.58-.38-.92s.14-.68.38-.92c.49-.48,1.36-.48,1.84,0,.24.25.38.58.38.92s-.14.68-.38.92c-.24.24-.58.38-.92.38Z"/>
          <path class="cls-5" d="M28.75,24.54c-.34,0-.67-.14-.92-.38-.24-.24-.38-.58-.38-.92s.14-.68.38-.92c.49-.48,1.36-.48,1.84,0,.24.24.38.58.38.92s-.14.68-.38.92c-.24.24-.58.38-.92.38Z"/>
          <path class="cls-5" d="M27.5,28.54c-.34,0-.68-.14-.92-.38-.24-.24-.38-.58-.38-.92s.14-.68.38-.92c.49-.48,1.36-.48,1.84,0,.24.24.38.58.38.92s-.14.68-.38.92c-.24.24-.57.38-.92.38Z"/>
          <path class="cls-5" d="M24.75,30.54c-.34,0-.67-.14-.92-.38-.24-.24-.38-.58-.38-.92s.14-.68.38-.92c.48-.48,1.36-.49,1.84,0,.24.24.38.58.38.92s-.14.68-.38.92c-.24.24-.58.38-.92.38Z"/>
          <path class="cls-5" d="M21.25,29.79c-.34,0-.68-.14-.92-.38-.24-.24-.38-.58-.38-.92s.14-.68.38-.92c.48-.48,1.36-.49,1.84,0,.24.24.38.58.38.92s-.14.68-.38.92c-.24.24-.57.38-.92.38Z"/>
          <path class="cls-5" d="M18,30.54c-.34,0-.67-.14-.92-.38-.24-.24-.38-.58-.38-.92s.14-.68.38-.92c.48-.48,1.36-.49,1.84,0,.24.24.38.58.38.92s-.14.68-.38.92c-.24.24-.58.38-.92.38Z"/>
          <path class="cls-5" d="M16.5,26.79c-.34,0-.68-.14-.92-.38-.24-.24-.38-.58-.38-.92s.14-.68.38-.92c.49-.48,1.36-.48,1.84,0,.24.24.38.58.38.92s-.14.68-.38.92c-.24.24-.58.38-.92.38Z"/>
          <path class="cls-5" d="M14.5,29.29c-.34,0-.68-.14-.92-.38-.24-.24-.38-.58-.38-.92s.14-.68.38-.92c.49-.48,1.35-.48,1.84,0,.24.24.38.58.38.92s-.14.68-.38.92c-.24.24-.57.38-.92.38Z"/>
          <path class="cls-5" d="M11.25,28.04c-.34,0-.67-.14-.92-.38-.24-.24-.38-.58-.38-.92s.14-.68.38-.92c.49-.49,1.36-.48,1.84,0,.24.25.38.58.38.92s-.14.68-.38.92c-.24.24-.58.38-.92.38Z"/>
          <path class="cls-5" d="M8,29.54c-.34,0-.67-.14-.92-.38-.24-.24-.38-.58-.38-.92s.14-.67.38-.92c.48-.48,1.36-.48,1.84,0,.25.25.38.58.38.92s-.13.68-.38.92c-.24.24-.58.38-.92.38Z"/>
          <path class="cls-5" d="M7,32.79c-.34,0-.67-.14-.92-.38-.24-.24-.38-.58-.38-.92s.14-.68.38-.92c.48-.48,1.36-.48,1.84,0,.24.24.38.58.38.92s-.14.68-.38.92c-.24.24-.58.38-.92.38Z"/>
          <path class="cls-5" d="M8.5,37.04c-.34,0-.67-.14-.92-.38-.24-.24-.38-.58-.38-.92s.14-.68.38-.92c.48-.48,1.36-.48,1.84,0,.24.24.38.58.38.92s-.14.68-.38.92c-.24.24-.58.38-.92.38Z"/>
          <path class="cls-5" d="M11,34.54c-.34,0-.67-.14-.92-.38-.24-.24-.38-.58-.38-.92s.14-.68.38-.92c.48-.48,1.36-.48,1.84,0,.24.24.38.58.38.92s-.14.68-.38.92c-.24.24-.58.38-.92.38Z"/>
          <path class="cls-5" d="M13.75,32.04c-.34,0-.68-.14-.92-.38-.24-.24-.38-.58-.38-.92s.14-.68.38-.92c.49-.48,1.35-.48,1.84,0,.24.24.38.58.38.92s-.14.68-.38.92c-.24.24-.58.38-.92.38Z"/>
          <path class="cls-5" d="M17.5,34.29c-.34,0-.67-.14-.92-.38-.24-.24-.38-.58-.38-.92s.14-.68.38-.92c.48-.48,1.36-.48,1.84,0,.24.24.38.58.38.92s-.14.68-.38.92c-.24.24-.58.38-.92.38Z"/>
          <path class="cls-5" d="M14.5,36.79c-.34,0-.67-.14-.92-.38-.24-.24-.38-.58-.38-.92s.14-.68.38-.92c.48-.48,1.36-.48,1.84,0,.24.24.38.58.38.92s-.14.68-.38.92c-.24.24-.58.38-.92.38Z"/>
          <path class="cls-5" d="M11.5,39.54c-.34,0-.67-.14-.92-.38-.24-.24-.38-.58-.38-.92s.14-.68.38-.92c.49-.48,1.36-.48,1.84,0,.24.24.38.58.38.92s-.14.68-.38.92c-.24.24-.58.38-.92.38Z"/>
          <path class="cls-5" d="M8.25,41.29c-.34,0-.67-.14-.92-.38-.24-.25-.38-.58-.38-.92s.14-.68.38-.92c.49-.48,1.36-.48,1.84,0,.24.24.38.58.38.92s-.14.67-.38.92c-.24.24-.58.38-.92.38Z"/>
          <path class="cls-5" d="M8.5,37.04c-.34,0-.67-.14-.92-.38-.24-.24-.38-.58-.38-.92s.14-.68.38-.92c.48-.48,1.36-.48,1.84,0,.24.24.38.58.38.92s-.14.68-.38.92c-.24.24-.58.38-.92.38Z"/>
          <path class="cls-5" d="M5.25,38.54c-.34,0-.67-.14-.92-.38-.24-.24-.38-.58-.38-.92s.14-.68.38-.92c.48-.48,1.36-.48,1.84,0,.24.24.38.58.38.92s-.14.68-.38.92c-.24.24-.58.38-.92.38Z"/>
          <path class="cls-5" d="M4.25,34.04c-.34,0-.68-.14-.92-.38-.24-.24-.38-.58-.38-.92s.14-.68.38-.92c.49-.48,1.36-.48,1.84,0,.24.25.38.58.38.92s-.14.68-.38.92c-.24.24-.58.38-.92.38Z"/>
          <path class="cls-5" d="M4,28.79c-.34,0-.67-.14-.92-.38-.24-.24-.38-.58-.38-.92s.14-.68.38-.92c.49-.48,1.36-.48,1.84,0,.24.24.38.58.38.92s-.14.68-.38.92c-.24.24-.58.38-.92.38Z"/>
          <path class="cls-5" d="M1,30.79c-.34,0-.67-.14-.92-.38-.24-.24-.38-.58-.38-.92s.14-.68.38-.92c.49-.48,1.35-.48,1.84,0,.25.25.38.58.38.92s-.13.67-.38.92c-.24.24-.58.38-.92.38Z"/>
          <path class="cls-5" d="M.25,34.79c-.34,0-.67-.14-.92-.38-.24-.24-.38-.58-.38-.92s.14-.68.38-.92c.48-.48,1.36-.48,1.84,0,.24.24.38.58.38.92s-.14.68-.38.92c-.24.24-.58.38-.92.38Z"/>
          <path class="cls-5" d="M.25,26.29c-.34,0-.67-.14-.92-.38-.24-.25-.38-.58-.38-.92s.14-.67.38-.92c.49-.48,1.35-.48,1.84,0,.24.24.38.58.38.92s-.14.68-.38.92c-.24.24-.58.38-.92.38Z"/>
          <path class="cls-5" d="M1.5,38.29c-.34,0-.68-.14-.92-.38-.24-.24-.38-.58-.38-.92s.14-.68.38-.92c.49-.48,1.36-.49,1.84,0,.24.24.38.58.38.92s-.14.68-.38.92c-.24.24-.58.38-.92.38Z"/>
          <path class="cls-5" d="M2,42.04c-.34,0-.67-.14-.92-.38-.24-.24-.38-.58-.38-.92s.14-.68.38-.92c.49-.48,1.36-.48,1.84,0,.24.24.38.58.38.92s-.14.68-.38.92c-.24.24-.58.38-.92.38Z"/>
          <path class="cls-5" d="M1.25,48.04c-.34,0-.67-.14-.92-.38-.24-.24-.38-.58-.38-.92s.14-.67.38-.92c.49-.48,1.35-.48,1.84,0,.24.24.38.58.38.92s-.14.68-.38.92c-.24.24-.58.38-.92.38Z"/>
          <path class="cls-5" d="M2.25,51.04c-.34,0-.67-.14-.92-.38-.24-.24-.38-.58-.38-.92s.14-.67.38-.92c.49-.48,1.36-.48,1.84,0,.24.25.38.58.38.92s-.14.68-.38.92c-.24.24-.58.38-.92.38Z"/>
          <path class="cls-5" d="M5.75,49.04c-.34,0-.67-.14-.92-.38-.24-.24-.38-.58-.38-.92s.14-.68.38-.92c.48-.48,1.36-.48,1.84,0,.24.24.38.58.38.92s-.14.68-.38.92c-.24.24-.58.38-.92.38Z"/>
          <path class="cls-5" d="M4,45.04c-.34,0-.68-.14-.92-.38-.24-.24-.38-.58-.38-.92s.14-.68.38-.92c.49-.48,1.36-.48,1.84,0,.24.25.38.58.38.92s-.14.68-.38.92c-.24.24-.58.38-.92.38Z"/>
          <path class="cls-5" d="M8,45.54c-.34,0-.67-.14-.92-.38-.24-.24-.38-.58-.38-.92s.14-.68.38-.92c.48-.48,1.36-.48,1.84,0,.25.25.38.58.38.92s-.14.68-.38.92c-.24.24-.58.38-.92.38Z"/>
          <path class="cls-5" d="M10.5,48.54c-.34,0-.67-.14-.92-.38-.24-.24-.38-.58-.38-.92s.14-.67.38-.92c.48-.48,1.36-.48,1.84,0,.24.25.38.58.38.92s-.14.68-.38.92c-.24.24-.58.38-.92.38Z"/>
          <path class="cls-5" d="M13.5,49.54c-.34,0-.68-.14-.92-.38-.24-.24-.38-.58-.38-.92s.14-.68.38-.92c.49-.48,1.36-.48,1.84,0,.24.24.38.58.38.92s-.14.68-.38.92c-.24.24-.58.38-.92.38Z"/>
          <path class="cls-5" d="M16.25,51.04c-.34,0-.67-.14-.92-.38-.24-.24-.38-.58-.38-.92s.14-.68.38-.92c.49-.48,1.36-.48,1.84,0,.24.24.38.58.38.92s-.14.68-.38.92c-.24.24-.58.38-.92.38Z"/>
          <path class="cls-5" d="M11,44.29c-.34,0-.67-.14-.92-.38-.24-.24-.38-.58-.38-.92s.14-.68.38-.92c.49-.48,1.36-.48,1.84,0,.24.24.38.58.38.92s-.14.68-.38.92c-.24.24-.58.38-.92.38Z"/>
          <path class="cls-5" d="M14.5,45.54c-.34,0-.67-.14-.92-.38-.24-.24-.38-.58-.38-.92s.14-.68.38-.92c.48-.48,1.36-.48,1.84,0,.24.24.38.58.38.92s-.14.68-.38.92c-.24.24-.58.38-.92.38Z"/>
          <path class="cls-5" d="M17.75,46.54c-.34,0-.68-.14-.92-.38-.24-.24-.38-.58-.38-.92s.14-.67.38-.92c.49-.48,1.36-.48,1.84,0,.24.25.38.58.38.92s-.14.68-.38.92c-.24.24-.57.38-.92.38Z"/>
          <path class="cls-5" d="M14.75,41.04c-.34,0-.68-.14-.92-.38-.24-.24-.38-.58-.38-.92s.14-.68.38-.92c.49-.48,1.36-.48,1.84,0,.24.24.38.58.38.92s-.14.68-.38.92c-.24.24-.58.38-.92.38Z"/>
          <path class="cls-5" d="M18.75,42.04c-.34,0-.67-.14-.92-.38-.24-.24-.38-.58-.38-.92s.14-.67.38-.92c.49-.48,1.36-.48,1.84,0,.24.25.38.58.38.92s-.14.68-.38.92c-.24.24-.58.38-.92.38Z"/>
          <path class="cls-5" d="M19.5,37.79c-.34,0-.67-.14-.92-.38-.24-.24-.38-.58-.38-.92s.14-.68.38-.92c.49-.48,1.36-.48,1.84,0,.24.24.38.58.38.92s-.14.68-.38.92c-.24.24-.58.38-.92.38Z"/>
          <path class="cls-5" d="M22,40.79c-.34,0-.68-.14-.92-.38-.24-.24-.38-.58-.38-.92s.14-.68.38-.92c.48-.48,1.36-.49,1.84,0,.24.24.38.58.38.92s-.14.68-.38.92c-.24.24-.57.38-.92.38Z"/>
          <path class="cls-5" d="M24.75,38.29c-.34,0-.68-.14-.92-.38-.24-.24-.38-.58-.38-.92s.14-.67.38-.92c.49-.48,1.36-.48,1.84,0,.24.25.38.58.38.92s-.14.68-.38.92c-.24.24-.58.38-.92.38Z"/>
          <path class="cls-5" d="M21,44.79c-.34,0-.67-.14-.92-.38-.24-.24-.38-.58-.38-.92s.14-.68.38-.92c.49-.48,1.36-.48,1.84,0,.24.24.38.58.38.92s-.14.68-.38.92c-.24.24-.58.38-.92.38Z"/>
          <path class="cls-5" d="M24.5,46.79c-.34,0-.67-.14-.92-.38-.24-.24-.38-.58-.38-.92s.14-.68.38-.92c.49-.48,1.36-.48,1.84,0,.24.24.38.58.38.92s-.14.68-.38.92c-.24.24-.58.38-.92.38Z"/>
          <path class="cls-5" d="M24.5,50.79c-.34,0-.68-.14-.92-.38-.24-.24-.38-.58-.38-.92s.14-.68.38-.92c.49-.48,1.36-.48,1.84,0,.24.24.38.58.38.92s-.14.68-.38.92c-.24.24-.58.38-.92.38Z"/>
          <path class="cls-5" d="M20.5,49.04c-.34,0-.68-.14-.92-.38-.24-.24-.38-.58-.38-.92s.14-.68.38-.92c.49-.48,1.36-.48,1.84,0,.24.25.38.58.38.92s-.14.68-.38.92c-.24.24-.57.38-.92.38Z"/>
          <path class="cls-5" d="M28,47.79c-.34,0-.67-.14-.92-.38-.24-.24-.38-.58-.38-.92s.14-.68.38-.92c.49-.48,1.36-.48,1.84,0,.24.24.38.58.38.92s-.14.68-.38.92c-.24.24-.57.38-.92.38Z"/>
          <path class="cls-5" d="M30,44.54c-.34,0-.68-.14-.92-.38-.24-.24-.38-.58-.38-.92s.14-.68.38-.92c.49-.48,1.35-.48,1.84,0,.25.25.38.58.38.92s-.14.68-.38.92c-.24.24-.58.38-.92.38Z"/>
          <path class="cls-5" d="M28.75,40.54c-.34,0-.68-.14-.92-.38-.24-.24-.38-.58-.38-.92s.14-.68.38-.92c.49-.48,1.36-.48,1.84,0,.24.24.38.58.38.92s-.14.68-.38.92c-.24.24-.58.38-.92.38Z"/>
          <path class="cls-5" d="M28.75,36.54c-.34,0-.67-.14-.92-.38-.24-.24-.38-.58-.38-.92s.14-.68.38-.92c.49-.48,1.36-.48,1.84,0,.24.24.38.58.38.92s-.14.68-.38.92c-.24.24-.58.38-.92.38Z"/>
          <path class="cls-5" d="M25.5,34.79c-.34,0-.67-.14-.92-.38-.24-.24-.38-.58-.38-.92s.14-.68.38-.92c.49-.48,1.36-.48,1.84,0,.24.24.38.58.38.92s-.14.68-.38.92c-.24.24-.58.38-.92.38Z"/>
          <path class="cls-5" d="M22,34.79c-.34,0-.68-.14-.92-.38-.24-.24-.38-.58-.38-.92s.14-.68.38-.92c.49-.48,1.36-.48,1.84,0,.24.24.38.58.38.92s-.14.68-.38.92c-.24.24-.57.38-.92.38Z"/>
          <path class="cls-5" d="M28.5,31.29c-.34,0-.67-.14-.92-.38-.24-.24-.38-.58-.38-.92s.14-.68.38-.92c.49-.48,1.36-.48,1.84,0,.24.25.38.58.38.92s-.14.68-.38.92c-.24.24-.58.38-.92.38Z"/>
          <path class="cls-5" d="M31.5,34.04c-.34,0-.67-.14-.92-.38-.24-.24-.38-.58-.38-.92s.14-.67.38-.92c.49-.48,1.36-.48,1.84,0,.24.24.38.58.38.92s-.14.68-.38.92c-.24.24-.58.38-.92.38Z"/>
          <path class="cls-5" d="M34.5,34.54c-.34,0-.67-.14-.92-.38-.24-.24-.38-.58-.38-.92s.14-.68.38-.92c.49-.48,1.36-.48,1.84,0,.24.24.38.58.38.92s-.14.68-.38.92c-.24.24-.58.38-.92.38Z"/>
          <path class="cls-5" d="M32,38.54c-.34,0-.67-.14-.92-.38-.24-.24-.38-.58-.38-.92s.14-.67.38-.92c.49-.48,1.36-.48,1.84,0,.24.24.38.58.38.92s-.14.68-.38.92c-.24.24-.58.38-.92.38Z"/>
          <path class="cls-5" d="M33,42.29c-.34,0-.68-.14-.92-.38-.24-.24-.38-.58-.38-.92s.14-.68.38-.92c.49-.48,1.36-.48,1.84,0,.24.24.38.58.38.92s-.14.68-.38.92c-.24.24-.57.38-.92.38Z"/>
          <path class="cls-5" d="M30,44.54c-.34,0-.68-.14-.92-.38-.24-.24-.38-.58-.38-.92s.14-.68.38-.92c.49-.48,1.35-.48,1.84,0,.25.25.38.58.38.92s-.14.68-.38.92c-.24.24-.58.38-.92.38Z"/>
          <path class="cls-5" d="M33.25,46.04c-.34,0-.67-.14-.92-.38-.24-.24-.38-.58-.38-.92s.14-.68.38-.92c.49-.49,1.36-.48,1.84,0,.25.25.38.58.38.92s-.14.67-.38.92c-.24.24-.58.38-.92.38Z"/>
          <path class="cls-5" d="M36.25,50.29c-.34,0-.68-.14-.92-.38-.24-.24-.38-.58-.38-.92s.14-.68.38-.92c.49-.49,1.36-.48,1.84,0,.24.24.38.58.38.92s-.14.68-.38.92c-.24.24-.58.38-.92.38Z"/>
          <path class="cls-5" d="M31.25,49.29c-.34,0-.67-.14-.92-.38-.24-.24-.38-.58-.38-.92s.14-.68.38-.92c.49-.48,1.36-.48,1.84,0,.24.24.38.58.38.92s-.14.67-.38.92c-.24.24-.58.38-.92.38Z"/>
          <path class="cls-5" d="M37,46.29c-.34,0-.67-.14-.92-.38-.24-.24-.38-.58-.38-.92s.14-.68.38-.92c.48-.48,1.36-.48,1.84,0,.24.24.38.58.38.92s-.14.68-.38.92c-.24.24-.57.38-.92.38Z"/>
          <path class="cls-5" d="M36.75,41.79c-.34,0-.68-.14-.92-.38-.24-.24-.38-.58-.38-.92s.14-.68.38-.92c.49-.48,1.36-.48,1.84,0,.24.24.38.58.38.92s-.14.68-.38.92c-.24.24-.57.38-.92.38Z"/>
          <path class="cls-5" d="M36,38.29c-.34,0-.67-.14-.92-.38-.24-.24-.38-.58-.38-.92s.14-.68.38-.92c.49-.48,1.36-.48,1.84,0,.25.25.38.58.38.92s-.13.67-.38.92c-.24.24-.58.38-.92.38Z"/>
          <path class="cls-5" d="M31.5,34.04c-.34,0-.67-.14-.92-.38-.24-.24-.38-.58-.38-.92s.14-.67.38-.92c.49-.48,1.36-.48,1.84,0,.24.24.38.58.38.92s-.14.68-.38.92c-.24.24-.58.38-.92.38Z"/>
          <path class="cls-5" d="M34.5,34.54c-.34,0-.67-.14-.92-.38-.24-.24-.38-.58-.38-.92s.14-.68.38-.92c.49-.48,1.36-.48,1.84,0,.24.24.38.58.38.92s-.14.68-.38.92c-.24.24-.58.38-.92.38Z"/>
          <path class="cls-5" d="M32.25,30.79c-.34,0-.67-.14-.92-.38-.24-.24-.38-.58-.38-.92s.14-.68.38-.92c.48-.48,1.36-.48,1.84,0,.24.24.38.58.38.92s-.14.68-.38.92c-.24.24-.58.38-.92.38Z"/>
          <path class="cls-5" d="M31.75,26.79c-.34,0-.68-.14-.92-.38-.24-.24-.38-.58-.38-.92s.14-.68.38-.92c.49-.48,1.36-.48,1.84,0,.24.24.38.58.38.92s-.14.68-.38.92c-.24.24-.57.38-.92.38Z"/>
          <path class="cls-5" d="M35.5,27.04c-.34,0-.67-.14-.92-.38-.24-.24-.38-.58-.38-.92s.14-.68.38-.92c.49-.48,1.36-.48,1.84,0,.24.24.38.58.38.92s-.14.68-.38.92c-.24.24-.58.38-.92.38Z"/>
          <path class="cls-5" d="M36.25,31.54c-.34,0-.67-.14-.92-.38-.24-.24-.38-.58-.38-.92s.14-.68.38-.92c.49-.49,1.36-.48,1.84,0,.24.24.38.58.38.92s-.14.68-.38.92c-.24.24-.58.38-.92.38Z"/>
          <path class="cls-5" d="M38.5,34.79c-.34,0-.68-.14-.92-.38-.24-.24-.38-.58-.38-.92s.14-.68.38-.92c.48-.48,1.36-.48,1.84,0,.24.24.38.58.38.92s-.14.68-.38.92c-.24.24-.58.38-.92.38Z"/>
          <path class="cls-5" d="M41.5,37.29c-.34,0-.68-.14-.92-.38-.24-.24-.38-.58-.38-.92s.14-.68.38-.92c.48-.48,1.36-.48,1.84,0,.24.24.38.58.38.92s-.14.68-.38.92c-.24.24-.58.38-.92.38Z"/>
          <path class="cls-5" d="M41,41.04c-.34,0-.68-.14-.92-.38-.24-.24-.38-.58-.38-.92s.14-.68.38-.92c.49-.49,1.36-.48,1.84,0,.24.24.38.58.38.92s-.14.68-.38.92c-.24.24-.58.38-.92.38Z"/>
          <path class="cls-5" d="M40.25,44.79c-.34,0-.67-.14-.92-.38-.24-.24-.38-.58-.38-.92s.14-.68.38-.92c.48-.48,1.36-.49,1.84,0,.24.24.38.58.38.92s-.14.68-.38.92c-.24.24-.58.38-.92.38Z"/>
          <path class="cls-5" d="M42.25,48.29c-.34,0-.67-.14-.92-.38-.24-.24-.38-.58-.38-.92s.14-.68.38-.92c.48-.48,1.36-.49,1.84,0,.24.24.38.58.38.92s-.14.68-.38.92c-.24.24-.58.38-.92.38Z"/>
          <path class="cls-5" d="M45.25,45.29c-.34,0-.68-.14-.92-.38-.24-.24-.38-.58-.38-.92s.14-.68.38-.92c.49-.48,1.36-.48,1.84,0,.24.24.38.58.38.92s-.14.68-.38.92c-.24.24-.58.38-.92.38Z"/>
          <path class="cls-5" d="M45.25,49.79c-.34,0-.67-.14-.92-.38-.24-.24-.38-.58-.38-.92s.14-.68.38-.92c.49-.48,1.36-.48,1.84,0,.24.24.38.58.38.92s-.14.68-.38.92c-.24.24-.58.38-.92.38Z"/>
          <path class="cls-5" d="M45,40.54c-.34,0-.68-.14-.92-.38-.24-.24-.38-.58-.38-.92s.14-.68.38-.92c.49-.48,1.36-.48,1.84,0,.24.24.38.58.38.92s-.14.68-.38.92c-.24.24-.58.38-.92.38Z"/>
          <path class="cls-5" d="M46.25,37.54c-.34,0-.67-.14-.92-.38-.24-.24-.38-.58-.38-.92s.14-.68.38-.92c.48-.48,1.35-.48,1.84,0,.24.24.38.58.38.92s-.14.68-.38.92c-.24.24-.57.38-.92.38Z"/>
          <path class="cls-5" d="M43,33.54c-.34,0-.68-.14-.92-.38-.24-.24-.38-.58-.38-.92s.14-.68.38-.92c.49-.48,1.36-.48,1.84,0,.24.24.38.58.38.92s-.14.68-.38.92c-.25.24-.57.38-.92.38Z"/>
          <path class="cls-5" d="M41.25,31.04c-.34,0-.67-.14-.92-.38-.24-.24-.38-.58-.38-.92s.14-.67.38-.92c.49-.49,1.36-.48,1.84,0,.24.25.38.58.38.92s-.14.68-.38.92c-.24.24-.58.38-.92.38Z"/>
          <path class="cls-5" d="M39.25,28.79c-.34,0-.67-.14-.92-.38-.24-.24-.38-.58-.38-.92s.14-.68.38-.92c.49-.49,1.36-.48,1.84,0,.24.24.38.58.38.92s-.14.68-.38.92c-.24.24-.57.38-.92.38Z"/>
          <path class="cls-5" d="M42.5,26.79c-.34,0-.68-.14-.92-.38-.24-.24-.38-.58-.38-.92s.14-.68.38-.92c.49-.48,1.36-.48,1.84,0,.24.24.38.58.38.92s-.14.68-.38.92c-.24.24-.58.38-.92.38Z"/>
          <path class="cls-5" d="M41.5,22.79c-.34,0-.67-.14-.92-.38-.24-.24-.38-.58-.38-.92s.14-.68.38-.92c.48-.48,1.36-.48,1.84,0,.24.24.38.58.38.92s-.14.68-.38.92c-.24.24-.58.38-.92.38Z"/>
          <path class="cls-5" d="M46.25,25.54c-.34,0-.67-.14-.92-.38-.24-.24-.38-.58-.38-.92s.14-.68.38-.92c.49-.48,1.35-.48,1.84,0,.24.24.38.58.38.92s-.14.68-.38.92c-.24.24-.58.38-.92.38Z"/>
          <path class="cls-5" d="M45,29.79c-.34,0-.67-.14-.92-.38-.24-.24-.38-.58-.38-.92s.14-.68.38-.92c.49-.48,1.36-.48,1.84,0,.24.24.38.58.38.92s-.14.68-.38.92c-.24.24-.58.38-.92.38Z"/>
          <path class="cls-5" d="M47,33.04c-.34,0-.67-.14-.92-.38-.24-.24-.38-.58-.38-.92s.14-.68.38-.92c.48-.48,1.36-.48,1.84,0,.24.24.38.58.38.92s-.14.68-.38.92c-.24.24-.58.38-.92.38Z"/>
          <path class="cls-5" d="M50.25,35.54c-.34,0-.67-.14-.92-.38-.24-.25-.38-.58-.38-.92s.14-.68.38-.92c.48-.48,1.35-.48,1.84,0,.24.24.38.58.38.92s-.14.68-.38.92c-.24.24-.58.38-.92.38Z"/>
          <path class="cls-5" d="M50,39.54c-.34,0-.67-.14-.92-.38-.24-.25-.38-.58-.38-.92s.14-.67.38-.92c.49-.48,1.36-.48,1.84,0,.24.24.38.58.38.92s-.14.68-.38.92c-.24.24-.58.38-.92.38Z"/>
          <path class="cls-5" d="M49,43.54c-.34,0-.67-.14-.92-.38-.24-.24-.38-.58-.38-.92s.14-.67.38-.92c.49-.49,1.36-.48,1.84,0,.24.25.38.58.38.92s-.14.68-.38.92c-.24.24-.58.38-.92.38Z"/>
          <path class="cls-5" d="M52.75,42.79c-.34,0-.68-.14-.92-.38-.24-.24-.38-.58-.38-.92s.14-.68.38-.92c.49-.48,1.36-.48,1.84,0,.24.24.38.58.38.92s-.14.68-.38.92c-.24.24-.58.38-.92.38Z"/>
          <path class="cls-5" d="M52.5,47.29c-.34,0-.68-.14-.92-.38-.24-.24-.38-.58-.38-.92s.14-.68.38-.92c.49-.48,1.36-.48,1.84,0,.24.24.38.58.38.92s-.14.68-.38.92c-.24.24-.58.38-.92.38Z"/>
          <path class="cls-5" d="M55.25,50.29c-.34,0-.67-.14-.92-.38-.24-.24-.38-.58-.38-.92s.14-.68.38-.92c.49-.48,1.35-.49,1.84,0,.24.24.38.58.38.92s-.14.68-.38.92c-.24.24-.57.38-.92.38Z"/>
          <path class="cls-5" d="M56,45.54c-.34,0-.67-.14-.92-.38-.24-.24-.38-.58-.38-.92s.14-.68.38-.92c.49-.48,1.36-.48,1.84,0,.24.24.38.58.38.92s-.14.68-.38.92c-.24.24-.58.38-.92.38Z"/>
          <path class="cls-5" d="M56,41.79c-.34,0-.68-.14-.92-.38-.24-.24-.38-.58-.38-.92s.14-.68.38-.92c.49-.48,1.36-.48,1.84,0,.24.24.38.58.38.92s-.14.68-.38.92c-.24.24-.57.38-.92.38Z"/>
          <path class="cls-5" d="M55,37.79c-.34,0-.67-.14-.92-.38-.24-.24-.38-.58-.38-.92s.14-.68.38-.92c.48-.48,1.36-.48,1.84,0,.24.24.38.58.38.92s-.14.68-.38.92c-.24.24-.58.38-.92.38Z"/>
          <path class="cls-5" d="M25.75,42.79c-.34,0-.67-.14-.92-.38-.24-.24-.38-.58-.38-.92s.14-.68.38-.92c.49-.48,1.36-.49,1.84,0,.24.24.38.58.38.92s-.14.68-.38.92c-.24.24-.58.38-.92.38Z"/>
          <path class="cls-5" d="M68.75,32.04c-.34,0-.68-.14-.92-.38-.24-.24-.38-.58-.38-.92s.14-.68.38-.92c.49-.49,1.36-.48,1.84,0,.24.24.38.58.38.92s-.14.68-.38.92c-.24.24-.58.38-.92.38Z"/>
          <path class="cls-5" d="M69.75,27.79c-.34,0-.67-.14-.92-.38-.24-.24-.38-.58-.38-.92s.14-.68.38-.92c.49-.48,1.36-.48,1.84,0,.24.24.38.58.38.92s-.14.68-.38.92c-.24.24-.58.38-.92.38Z"/>
          <path class="cls-5" d="M66.5,26.04c-.34,0-.67-.14-.92-.38-.24-.24-.38-.58-.38-.92s.14-.67.38-.92c.49-.49,1.36-.48,1.84,0,.24.24.38.58.38.92s-.14.68-.38.92c-.24.24-.58.38-.92.38Z"/>
          <path class="cls-5" d="M66.75,35.29c-.34,0-.68-.14-.92-.38-.24-.24-.38-.58-.38-.92s.14-.68.38-.92c.49-.48,1.36-.48,1.84,0,.24.24.38.58.38.92s-.14.68-.38.92c-.24.24-.57.38-.92.38Z"/>
          <path class="cls-5" d="M66.5,39.04c-.34,0-.67-.14-.92-.38-.24-.24-.38-.58-.38-.92s.14-.68.38-.92c.49-.49,1.36-.48,1.84,0,.24.24.38.58.38.92s-.14.68-.38.92c-.24.24-.58.38-.92.38Z"/>
          <path class="cls-5" d="M70,37.79c-.34,0-.68-.14-.92-.38-.24-.24-.38-.58-.38-.92s.14-.68.38-.92c.49-.48,1.36-.48,1.84,0,.24.24.38.58.38.92s-.14.68-.38.92c-.24.24-.58.38-.92.38Z"/>
          <path class="cls-5" d="M69.25,41.79c-.34,0-.67-.14-.92-.38-.24-.24-.38-.58-.38-.92s.14-.67.38-.92c.48-.48,1.36-.48,1.84,0,.24.24.38.58.38.92s-.14.68-.38.92c-.24.24-.58.38-.92.38Z"/>
          <path class="cls-5" d="M68.5,49.29c-.34,0-.67-.14-.92-.38-.24-.24-.38-.58-.38-.92s.14-.68.38-.92c.48-.48,1.36-.49,1.84,0,.24.24.38.58.38.92s-.14.68-.38.92c-.24.24-.58.38-.92.38Z"/>
          <path class="cls-5" d="M67.5,45.79c-.34,0-.67-.14-.92-.38-.24-.24-.38-.58-.38-.92s.14-.68.38-.92c.49-.48,1.36-.48,1.84,0,.24.24.38.58.38.92s-.14.68-.38.92c-.24.24-.58.38-.92.38Z"/>
          <path class="cls-5" d="M65,29.79c-.34,0-.68-.14-.92-.38-.24-.24-.38-.58-.38-.92s.14-.68.38-.92c.48-.48,1.36-.48,1.84,0,.24.24.38.58.38.92s-.14.68-.38.92c-.24.24-.58.38-.92.38Z"/>
          <path class="cls-5" d="M61.5,30.04c-.34,0-.67-.14-.92-.38-.24-.24-.38-.58-.38-.92s.14-.68.38-.92c.49-.48,1.35-.48,1.84,0,.24.24.38.58.38.92s-.14.68-.38.92c-.24.24-.57.38-.92.38Z"/>
          <path class="cls-5" d="M62.5,25.29c-.34,0-.67-.14-.92-.38-.24-.24-.38-.58-.38-.92s.14-.68.38-.92c.49-.48,1.35-.48,1.84,0,.24.24.38.58.38.92s-.14.68-.38.92c-.24.24-.58.38-.92.38Z"/>
          <path class="cls-5" d="M59,26.79c-.34,0-.67-.14-.92-.38-.24-.24-.38-.58-.38-.92s.14-.68.38-.92c.49-.48,1.35-.48,1.84,0,.24.24.38.58.38.92s-.14.68-.38.92c-.24.24-.57.38-.92.38Z"/>
          <path class="cls-5" d="M55.25,25.79c-.34,0-.67-.14-.92-.38-.24-.24-.38-.58-.38-.92s.14-.68.38-.92c.49-.48,1.35-.48,1.84,0,.24.24.38.58.38.92s-.14.68-.38.92c-.24.24-.58.38-.92.38Z"/>
          <path class="cls-5" d="M51.75,27.54c-.34,0-.67-.14-.92-.38-.24-.24-.38-.58-.38-.92s.14-.68.38-.92c.48-.48,1.35-.49,1.84,0,.24.24.38.58.38.92s-.14.68-.38.92c-.24.24-.57.38-.92.38Z"/>
          <path class="cls-5" d="M48.75,28.54c-.34,0-.67-.14-.92-.38-.24-.24-.38-.58-.38-.92s.14-.68.38-.92c.49-.48,1.36-.48,1.84,0,.24.24.38.58.38.92s-.14.68-.38.92c-.24.24-.58.38-.92.38Z"/>
          <path class="cls-5" d="M51,32.29c-.34,0-.67-.14-.92-.38-.24-.24-.38-.58-.38-.92s.14-.68.38-.92c.49-.48,1.35-.48,1.84,0,.24.24.38.58.38.92s-.14.68-.38.92c-.24.24-.58.38-.92.38Z"/>
          <path class="cls-5" d="M55.25,29.79c-.34,0-.67-.14-.92-.38-.24-.24-.38-.58-.38-.92s.14-.68.38-.92c.49-.48,1.35-.48,1.84,0,.24.24.38.58.38.92s-.14.68-.38.92c-.24.24-.58.38-.92.38Z"/>
          <path class="cls-5" d="M58.25,32.79c-.34,0-.68-.14-.92-.38-.24-.24-.38-.58-.38-.92s.14-.67.38-.92c.49-.48,1.36-.48,1.84,0,.24.24.38.58.38.92s-.14.68-.38.92c-.24.24-.58.38-.92.38Z"/>
          <path class="cls-5" d="M54.5,34.29c-.34,0-.68-.14-.92-.38-.24-.24-.38-.58-.38-.92s.14-.68.38-.92c.48-.48,1.35-.49,1.84,0,.24.24.38.58.38.92s-.14.68-.38.92c-.24.24-.57.38-.92.38Z"/>
          <path class="cls-5" d="M58.5,37.04c-.34,0-.67-.14-.92-.38-.24-.24-.38-.58-.38-.92s.14-.68.38-.92c.49-.48,1.35-.48,1.84,0,.24.24.38.58.38.92s-.14.68-.38.92c-.24.24-.58.38-.92.38Z"/>
          <path class="cls-5" d="M63,33.54c-.34,0-.67-.14-.91-.38-.25-.24-.39-.58-.39-.92s.14-.68.38-.92c.48-.48,1.35-.49,1.84,0,.24.24.38.58.38.92s-.14.68-.38.92c-.24.24-.58.38-.92.38Z"/>
          <path class="cls-5" d="M62.75,36.79c-.34,0-.67-.14-.92-.38-.24-.24-.38-.58-.38-.92s.14-.68.38-.92c.48-.48,1.35-.48,1.84,0,.24.24.38.58.38.92s-.14.68-.38.92c-.24.24-.58.38-.92.38Z"/>
          <path class="cls-5" d="M60,41.04c-.34,0-.67-.14-.92-.38-.24-.24-.38-.58-.38-.92s.14-.68.38-.92c.49-.48,1.35-.48,1.84,0,.24.24.38.58.38.92s-.14.68-.38.92c-.24.24-.57.38-.92.38Z"/>
          <path class="cls-5" d="M61.25,45.04c-.34,0-.67-.14-.92-.38-.24-.24-.38-.58-.38-.92s.14-.68.38-.92c.49-.48,1.35-.48,1.84,0,.24.24.38.58.38.92s-.14.68-.38.92c-.24.24-.57.38-.92.38Z"/>
          <path class="cls-5" d="M56,45.54c-.34,0-.67-.14-.92-.38-.24-.24-.38-.58-.38-.92s.14-.68.38-.92c.49-.48,1.36-.48,1.84,0,.24.24.38.58.38.92s-.14.68-.38.92c-.24.24-.58.38-.92.38Z"/>
          <path class="cls-5" d="M58.75,47.79c-.34,0-.68-.14-.92-.38-.24-.25-.38-.58-.38-.92s.14-.68.38-.92c.49-.48,1.35-.48,1.84,0,.24.24.38.58.38.92s-.13.68-.38.92c-.24.24-.58.38-.92.38Z"/>
          <path class="cls-5" d="M64.25,48.04c-.34,0-.67-.14-.92-.38-.24-.24-.38-.58-.38-.92s.14-.68.38-.92c.49-.49,1.36-.48,1.84,0,.24.24.38.58.38.92s-.14.68-.38.92c-.24.24-.57.38-.92.38Z"/>
          <path class="cls-5" d="M64,42.29c-.34,0-.67-.14-.92-.38-.24-.24-.38-.58-.38-.92s.14-.68.38-.92c.49-.48,1.37-.48,1.84,0,.24.24.38.58.38.92s-.14.68-.38.92c-.24.24-.58.38-.92.38Z"/>
          <path class="cls-5" d="M48.5,47.79c-.34,0-.67-.14-.92-.38-.24-.24-.38-.58-.38-.92s.14-.67.38-.92c.49-.48,1.36-.48,1.84,0,.24.25.38.58.38.92s-.14.67-.38.92c-.24.24-.58.38-.92.38Z"/>
          <path class="cls-5" d="M60.25,51.54c-.34,0-.67-.14-.92-.38-.24-.24-.38-.58-.38-.92s.14-.67.38-.92c.49-.48,1.36-.48,1.84,0,.24.24.38.58.38.92s-.14.68-.38.92c-.24.24-.58.38-.92.38Z"/>
          <path class="cls-5" d="M5.25,57.54c-.34,0-.67-.14-.92-.38-.24-.24-.38-.58-.38-.92s.14-.68.38-.92c.48-.48,1.36-.48,1.84,0,.24.25.38.58.38.92s-.14.68-.38.92c-.24.24-.58.38-.92.38Z"/>
          <path class="cls-5" d="M6.25,53.04c-.34,0-.67-.14-.92-.38-.24-.24-.38-.58-.38-.92s.14-.68.38-.92c.49-.48,1.35-.48,1.84,0,.24.24.38.58.38.92s-.14.68-.38.92c-.24.24-.58.38-.92.38Z"/>
          <path class="cls-5" d="M9.5,51.79c-.34,0-.67-.14-.92-.38-.24-.24-.38-.58-.38-.92s.14-.68.38-.92c.49-.48,1.36-.48,1.84,0,.24.24.38.58.38.92s-.14.68-.38.92c-.24.24-.58.38-.92.38Z"/>
          <path class="cls-5" d="M8.5,55.79c-.34,0-.67-.14-.92-.38-.24-.24-.38-.58-.38-.92s.14-.68.38-.92c.49-.48,1.36-.48,1.84,0,.24.24.38.58.38.92s-.14.68-.38.92c-.24.24-.58.38-.92.38Z"/>
          <path class="cls-5" d="M12,57.79c-.34,0-.67-.14-.92-.38-.24-.24-.38-.58-.38-.92s.14-.68.38-.92c.49-.48,1.36-.48,1.84,0,.24.24.38.58.38.92s-.14.68-.38.92c-.24.24-.58.38-.92.38Z"/>
          <path class="cls-5" d="M12,61.79c-.34,0-.67-.14-.92-.38-.24-.24-.38-.58-.38-.92s.14-.68.38-.92c.49-.48,1.36-.48,1.84,0,.24.24.38.58.38.92s-.14.68-.38.92c-.24.24-.58.38-.92.38Z"/>
          <path class="cls-5" d="M8,60.04c-.34,0-.67-.14-.92-.38-.24-.24-.38-.58-.38-.92s.14-.68.38-.92c.48-.48,1.36-.48,1.84,0,.25.24.38.58.38.92s-.13.68-.38.92c-.24.24-.58.38-.92.38Z"/>
          <path class="cls-5" d="M15.5,58.79c-.34,0-.68-.14-.92-.38-.24-.24-.38-.58-.38-.92s.14-.68.38-.92c.48-.48,1.36-.48,1.84,0,.24.24.38.58.38.92s-.14.68-.38.92c-.24.24-.57.38-.92.38Z"/>
          <path class="cls-5" d="M15.75,61.79c-.34,0-.68-.14-.92-.38-.24-.24-.38-.58-.38-.92s.14-.67.38-.92c.49-.48,1.36-.48,1.84,0,.24.25.38.58.38.92s-.14.68-.38.92c-.24.24-.57.38-.92.38Z"/>
          <path class="cls-5" d="M17.5,55.54c-.34,0-.67-.14-.92-.38-.24-.24-.38-.58-.38-.92s.14-.68.38-.92c.48-.48,1.36-.49,1.84,0,.24.24.38.58.38.92s-.14.68-.38.92c-.24.24-.58.38-.92.38Z"/>
          <path class="cls-5" d="M20.5,53.29c-.34,0-.67-.14-.92-.38-.24-.24-.38-.58-.38-.92s.14-.68.38-.92c.49-.48,1.36-.48,1.84,0,.24.24.38.58.38.92s-.14.68-.38.92c-.24.24-.58.38-.92.38Z"/>
          <path class="cls-5" d="M17.5,55.54c-.34,0-.67-.14-.92-.38-.24-.24-.38-.58-.38-.92s.14-.68.38-.92c.48-.48,1.36-.49,1.84,0,.24.24.38.58.38.92s-.14.68-.38.92c-.24.24-.58.38-.92.38Z"/>
          <path class="cls-5" d="M20.75,57.04c-.34,0-.67-.14-.92-.38-.24-.24-.38-.58-.38-.92s.14-.68.38-.92c.49-.48,1.36-.48,1.84,0,.24.24.38.58.38.92s-.14.68-.38.92c-.24.24-.58.38-.92.38Z"/>
          <path class="cls-5" d="M23.75,61.29c-.34,0-.67-.14-.92-.38-.24-.24-.38-.58-.38-.92s.14-.68.38-.92c.49-.48,1.35-.48,1.84,0,.25.25.38.58.38.92s-.14.68-.38.92c-.24.24-.58.38-.92.38Z"/>
          <path class="cls-5" d="M18.75,60.29c-.34,0-.67-.14-.92-.38-.24-.24-.38-.58-.38-.92s.14-.68.38-.92c.49-.48,1.36-.48,1.84,0,.24.24.38.58.38.92s-.14.68-.38.92c-.24.24-.57.38-.92.38Z"/>
          <path class="cls-5" d="M24.5,58.29c-.34,0-.68-.14-.92-.38-.24-.24-.38-.58-.38-.92s.14-.68.38-.92c.49-.48,1.36-.48,1.84,0,.24.24.38.58.38.92s-.14.68-.38.92c-.24.24-.57.38-.92.38Z"/>
          <path class="cls-5" d="M24.25,53.79c-.34,0-.67-.14-.92-.38-.24-.24-.38-.58-.38-.92s.14-.68.38-.92c.49-.48,1.36-.48,1.84,0,.24.24.38.58.38.92s-.14.68-.38.92c-.24.24-.58.38-.92.38Z"/>
          <path class="cls-5" d="M28.5,52.04c-.34,0-.67-.14-.92-.38-.24-.24-.38-.58-.38-.92s.14-.68.38-.92c.48-.48,1.36-.48,1.84,0,.24.25.38.58.38.92s-.14.67-.38.92c-.24.24-.57.38-.92.38Z"/>
          <path class="cls-5" d="M27.75,55.04c-.34,0-.68-.14-.92-.38-.24-.24-.38-.58-.38-.92s.14-.68.38-.92c.49-.48,1.36-.48,1.84,0,.24.24.38.58.38.92s-.14.68-.38.92c-.24.24-.57.38-.92.38Z"/>
          <path class="cls-5" d="M29,58.79c-.34,0-.68-.14-.92-.38-.24-.24-.38-.58-.38-.92s.14-.67.38-.92c.49-.49,1.36-.48,1.84,0,.24.25.38.58.38.92s-.14.68-.38.92c-.24.24-.58.38-.92.38Z"/>
          <path class="cls-5" d="M32.75,56.29c-.34,0-.67-.14-.92-.38-.24-.24-.38-.58-.38-.92s.14-.68.38-.92c.49-.49,1.36-.48,1.84,0,.24.24.38.58.38.92s-.14.68-.38.92c-.24.24-.58.38-.92.38Z"/>
          <path class="cls-5" d="M32.5,61.79c-.34,0-.68-.14-.92-.38-.24-.24-.38-.58-.38-.92s.14-.68.38-.92c.48-.48,1.35-.48,1.84,0,.24.24.38.58.38.92s-.14.68-.38.92c-.24.24-.58.38-.92.38Z"/>
          <path class="cls-5" d="M33,52.79c-.34,0-.67-.14-.92-.38-.24-.24-.38-.58-.38-.92s.14-.68.38-.92c.49-.48,1.36-.48,1.84,0,.24.24.38.58.38.92s-.14.68-.38.92c-.24.24-.58.38-.92.38Z"/>
          <path class="cls-5" d="M36.5,54.54c-.34,0-.67-.14-.92-.38-.24-.24-.38-.58-.38-.92s.14-.68.38-.92c.48-.48,1.36-.49,1.84,0,.24.24.38.58.38.92s-.14.68-.38.92c-.24.24-.58.38-.92.38Z"/>
          <path class="cls-5" d="M13.25,53.79c-.34,0-.68-.14-.92-.38-.24-.24-.38-.58-.38-.92s.14-.67.38-.92c.49-.48,1.36-.48,1.84,0,.24.25.38.58.38.92s-.14.68-.38.92c-.24.24-.58.38-.92.38Z"/>
          <path class="cls-5" d="M35.5,58.54c-.34,0-.67-.14-.92-.38-.24-.24-.38-.58-.38-.92s.14-.68.38-.92c.49-.49,1.36-.48,1.84,0,.25.24.38.58.38.92s-.14.68-.38.92c-.24.24-.58.38-.92.38Z"/>
          <path class="cls-5" d="M2,64.04c-.34,0-.68-.14-.92-.38-.24-.24-.38-.58-.38-.92s.14-.68.38-.92c.49-.48,1.36-.48,1.84,0,.24.24.38.58.38.92s-.14.68-.38.92c-.24.24-.58.38-.92.38Z"/>
          <path class="cls-5" d="M1,68.04c-.34,0-.68-.14-.92-.38-.24-.24-.38-.58-.38-.92s.14-.68.38-.92c.49-.48,1.35-.48,1.84,0,.24.24.38.58.38.92s-.13.68-.38.92c-.24.24-.58.38-.92.38Z"/>
          <path class="cls-5" d="M10,67.79c-.34,0-.67-.14-.92-.38-.24-.24-.38-.58-.38-.92s.14-.67.38-.92c.48-.48,1.36-.48,1.84,0,.24.25.38.58.38.92s-.14.68-.38.92c-.24.24-.58.38-.92.38Z"/>
          <path class="cls-5" d="M8.75,63.79c-.34,0-.67-.14-.92-.38-.24-.24-.38-.58-.38-.92s.14-.68.38-.92c.49-.48,1.36-.48,1.84,0,.24.24.38.58.38.92s-.14.68-.38.92c-.24.24-.58.38-.92.38Z"/>
          <path class="cls-5" d="M13,65.54c-.34,0-.68-.14-.92-.38-.24-.24-.38-.58-.38-.92s.14-.68.38-.92c.49-.48,1.36-.48,1.84,0,.24.25.38.58.38.92s-.14.68-.38.92c-.24.24-.57.38-.92.38Z"/>
          <path class="cls-5" d="M10,67.79c-.34,0-.67-.14-.92-.38-.24-.24-.38-.58-.38-.92s.14-.67.38-.92c.48-.48,1.36-.48,1.84,0,.24.25.38.58.38.92s-.14.68-.38.92c-.24.24-.58.38-.92.38Z"/>
          <path class="cls-5" d="M16.75,65.04c-.34,0-.67-.14-.92-.38-.24-.24-.38-.58-.38-.92s.14-.67.38-.92c.49-.49,1.36-.48,1.84,0,.24.24.38.58.38.92s-.14.68-.38.92c-.24.24-.58.38-.92.38Z"/>
          <path class="cls-5" d="M21,64.29c-.34,0-.67-.14-.92-.38-.24-.24-.38-.58-.38-.92s.14-.67.38-.92c.49-.49,1.36-.48,1.84,0,.24.25.38.58.38.92s-.14.68-.38.92c-.24.24-.58.38-.92.38Z"/>
          <path class="cls-5" d="M20.25,67.29c-.34,0-.67-.14-.92-.38-.24-.24-.38-.58-.38-.92s.14-.68.38-.92c.49-.48,1.35-.49,1.84,0,.24.25.38.58.38.92s-.14.68-.38.92c-.24.24-.57.38-.92.38Z"/>
          <path class="cls-5" d="M25.25,68.54c-.34,0-.67-.14-.92-.38-.24-.24-.38-.58-.38-.92s.14-.68.38-.92c.49-.48,1.36-.48,1.84,0,.24.24.38.58.38.92s-.14.68-.38.92c-.24.24-.58.38-.92.38Z"/>
          <path class="cls-5" d="M25.5,65.04c-.34,0-.67-.14-.92-.38-.24-.24-.38-.58-.38-.92s.14-.68.38-.92c.49-.48,1.35-.49,1.84,0,.24.24.38.58.38.92s-.14.68-.38.92c-.24.24-.58.38-.92.38Z"/>
          <path class="cls-5" d="M29.5,67.54c-.34,0-.67-.14-.92-.38-.24-.24-.38-.58-.38-.92s.14-.68.38-.92c.48-.48,1.36-.49,1.84,0,.24.24.38.58.38.92s-.14.68-.38.92c-.24.24-.58.38-.92.38Z"/>
          <path class="cls-5" d="M32.75,66.04c-.34,0-.67-.14-.92-.38-.24-.24-.38-.58-.38-.92s.14-.68.38-.92c.49-.49,1.36-.48,1.84,0,.24.24.38.58.38.92s-.14.68-.38.92c-.24.24-.58.38-.92.38Z"/>
          <path class="cls-5" d="M5.75,66.04c-.34,0-.67-.14-.92-.38-.24-.24-.38-.58-.38-.92s.14-.68.38-.92c.48-.48,1.36-.49,1.84,0,.24.24.38.58.38.92s-.14.68-.38.92c-.24.24-.58.38-.92.38Z"/>
          <path class="cls-5" d="M40,51.04c-.34,0-.67-.14-.92-.38-.24-.24-.38-.58-.38-.92s.14-.68.38-.92c.49-.48,1.36-.48,1.84,0,.24.24.38.58.38.92s-.14.68-.38.92c-.24.24-.58.38-.92.38Z"/>
          <path class="cls-5" d="M42.5,57.29c-.34,0-.67-.14-.92-.38-.24-.24-.38-.58-.38-.92s.14-.68.38-.92c.49-.48,1.36-.48,1.84,0,.24.24.38.58.38.92s-.14.68-.38.92c-.24.24-.58.38-.92.38Z"/>
          <path class="cls-5" d="M43,53.29c-.34,0-.68-.14-.92-.38-.24-.24-.38-.58-.38-.92s.14-.68.38-.92c.49-.48,1.36-.48,1.84,0,.24.24.38.58.38.92s-.14.68-.38.92c-.24.24-.58.38-.92.38Z"/>
          <path class="cls-5" d="M47.75,52.29c-.34,0-.68-.14-.92-.38-.24-.24-.38-.58-.38-.92s.14-.67.38-.92c.49-.48,1.36-.48,1.84,0,.24.24.38.58.38.92s-.14.68-.38.92c-.24.24-.57.38-.92.38Z"/>
          <path class="cls-5" d="M48.5,57.04c-.34,0-.68-.14-.92-.38-.24-.24-.38-.58-.38-.92s.14-.68.38-.92c.49-.48,1.36-.48,1.84,0,.24.24.38.58.38.92s-.14.68-.38.92c-.24.24-.58.38-.92.38Z"/>
          <path class="cls-5" d="M45.5,59.79c-.34,0-.67-.14-.92-.38-.24-.24-.38-.58-.38-.92s.14-.68.38-.92c.49-.48,1.36-.48,1.84,0,.24.24.38.58.38.92s-.14.68-.38.92c-.24.24-.58.38-.92.38Z"/>
          <path class="cls-5" d="M42.25,61.54c-.34,0-.67-.14-.92-.38-.24-.24-.38-.58-.38-.92s.14-.68.38-.92c.48-.48,1.36-.49,1.84,0,.24.24.38.58.38.92s-.14.68-.38.92c-.24.24-.58.38-.92.38Z"/>
          <path class="cls-5" d="M42.5,57.29c-.34,0-.67-.14-.92-.38-.24-.24-.38-.58-.38-.92s.14-.68.38-.92c.49-.48,1.36-.48,1.84,0,.24.24.38.58.38.92s-.14.68-.38.92c-.24.24-.58.38-.92.38Z"/>
          <path class="cls-5" d="M40.25,64.79c-.34,0-.67-.14-.92-.38-.24-.24-.38-.58-.38-.92s.14-.68.38-.92c.48-.48,1.36-.48,1.84,0,.24.24.38.58.38.92s-.14.68-.38.92c-.24.24-.58.38-.92.38Z"/>
          <path class="cls-5" d="M45,64.54c-.34,0-.67-.14-.92-.38-.24-.24-.38-.58-.38-.92s.14-.68.38-.92c.49-.48,1.36-.48,1.84,0,.24.24.38.58.38.92s-.14.68-.38.92c-.24.24-.58.38-.92.38Z"/>
          <path class="cls-5" d="M48.5,65.79c-.34,0-.67-.14-.92-.38-.24-.24-.38-.58-.38-.92s.14-.68.38-.92c.49-.49,1.36-.48,1.84,0,.24.25.38.58.38.92s-.14.67-.38.92c-.24.24-.58.38-.92.38Z"/>
          <path class="cls-5" d="M48.75,61.29c-.34,0-.67-.14-.92-.38-.24-.24-.38-.58-.38-.92s.14-.68.38-.92c.49-.48,1.36-.48,1.84,0,.24.24.38.58.38.92s-.14.68-.38.92c-.24.24-.58.38-.92.38Z"/>
          <path class="cls-5" d="M1.75,59.79c-.34,0-.68-.14-.92-.38-.24-.24-.38-.58-.38-.92s.14-.68.38-.92c.49-.49,1.36-.48,1.84,0,.24.25.38.58.38.92s-.14.68-.38.92c-.24.24-.58.38-.92.38Z"/>
          <path class="cls-5" d="M2.25,55.04c-.34,0-.68-.14-.92-.38-.24-.24-.38-.58-.38-.92s.14-.68.38-.92c.49-.48,1.36-.48,1.84,0,.24.24.38.58.38.92s-.14.68-.38.92c-.24.24-.58.38-.92.38Z"/>
          <path class="cls-5" d="M68.5,67.79c-.34,0-.67-.14-.92-.38-.24-.24-.38-.58-.38-.92s.14-.68.38-.92c.48-.48,1.36-.48,1.84,0,.24.24.38.58.38.92s-.14.68-.38.92c-.24.24-.58.38-.92.38Z"/>
          <path class="cls-5" d="M65.25,66.29c-.34,0-.68-.14-.92-.38-.24-.24-.38-.58-.38-.92s.14-.68.38-.92c.49-.49,1.36-.48,1.84,0,.24.24.38.58.38.92s-.14.68-.38.92c-.24.24-.57.38-.92.38Z"/>
          <path class="cls-5" d="M71.25,65.29c-.34,0-.67-.14-.92-.38-.24-.24-.38-.58-.38-.92s.14-.68.38-.92c.48-.48,1.36-.48,1.84,0,.24.24.38.58.38.92s-.14.68-.38.92c-.24.24-.58.38-.92.38Z"/>
          <path class="cls-5" d="M68,52.54c-.34,0-.67-.14-.92-.38-.24-.24-.38-.58-.38-.92s.14-.68.38-.92c.49-.48,1.36-.48,1.84,0,.24.24.38.58.38.92s-.14.68-.38.92c-.24.24-.58.38-.92.38Z"/>
          <path class="cls-5" d="M67.75,57.79c-.34,0-.68-.14-.92-.38-.24-.24-.38-.58-.38-.92s.14-.68.38-.92c.49-.48,1.37-.48,1.84,0,.24.24.38.58.38.92s-.14.68-.38.92c-.24.24-.58.38-.92.38Z"/>
          <path class="cls-5" d="M68,52.54c-.34,0-.67-.14-.92-.38-.24-.24-.38-.58-.38-.92s.14-.68.38-.92c.49-.48,1.36-.48,1.84,0,.24.24.38.58.38.92s-.14.68-.38.92c-.24.24-.58.38-.92.38Z"/>
          <path class="cls-5" d="M69.5,61.54c-.34,0-.68-.14-.92-.38-.24-.24-.38-.58-.38-.92s.14-.68.38-.92c.48-.48,1.35-.48,1.84,0,.24.24.38.58.38.92s-.14.68-.38.92c-.24.24-.58.38-.92.38Z"/>
          <path class="cls-5" d="M37.75,62.04c-.34,0-.68-.14-.92-.38-.24-.24-.38-.58-.38-.92s.14-.68.38-.92c.49-.49,1.36-.48,1.84,0,.24.24.38.58.38.92s-.14.68-.38.92c-.24.24-.57.38-.92.38Z"/>
          <path class="cls-5" d="M36.25,65.04c-.34,0-.68-.14-.92-.38-.24-.24-.38-.58-.38-.92s.14-.68.38-.92c.49-.49,1.36-.48,1.84,0,.24.24.38.58.38.92s-.14.68-.38.92c-.24.24-.57.38-.92.38Z"/>
          <path class="cls-5" d="M51.5,59.29c-.34,0-.67-.14-.92-.38-.24-.24-.38-.58-.38-.92s.14-.67.38-.92c.49-.48,1.35-.48,1.84,0,.24.25.38.58.38.92s-.14.68-.38.92c-.24.24-.57.38-.92.38Z"/>
          <path class="cls-5" d="M54.5,59.79c-.34,0-.68-.14-.92-.38-.24-.24-.38-.58-.38-.92s.14-.68.38-.92c.49-.48,1.35-.48,1.84,0,.24.24.38.58.38.92s-.14.68-.38.92c-.24.24-.58.38-.92.38Z"/>
          <path class="cls-5" d="M52,63.79c-.34,0-.67-.14-.92-.38-.24-.24-.38-.58-.38-.92s.14-.68.38-.92c.49-.48,1.36-.48,1.84,0,.24.24.38.58.38.92s-.14.68-.38.92c-.24.24-.58.38-.92.38Z"/>
          <path class="cls-5" d="M56,63.54c-.34,0-.67-.14-.92-.38-.24-.24-.38-.58-.38-.92s.14-.68.38-.92c.49-.48,1.36-.48,1.84,0,.24.24.38.58.38.92s-.14.68-.38.92c-.24.24-.58.38-.92.38Z"/>
          <path class="cls-5" d="M51.5,59.29c-.34,0-.67-.14-.92-.38-.24-.24-.38-.58-.38-.92s.14-.67.38-.92c.49-.48,1.35-.48,1.84,0,.24.25.38.58.38.92s-.14.68-.38.92c-.24.24-.57.38-.92.38Z"/>
          <path class="cls-5" d="M54.5,59.79c-.34,0-.68-.14-.92-.38-.24-.24-.38-.58-.38-.92s.14-.68.38-.92c.49-.48,1.35-.48,1.84,0,.24.24.38.58.38.92s-.14.68-.38.92c-.24.24-.58.38-.92.38Z"/>
          <path class="cls-5" d="M52.25,55.29c-.34,0-.68-.14-.92-.38-.24-.24-.38-.58-.38-.92s.14-.68.38-.92c.49-.48,1.35-.48,1.84,0,.24.24.38.58.38.92s-.14.68-.38.92c-.24.24-.57.38-.92.38Z"/>
          <path class="cls-5" d="M56.25,56.79c-.34,0-.67-.14-.92-.38-.24-.24-.38-.58-.38-.92s.14-.68.38-.92c.49-.48,1.35-.48,1.84,0,.24.24.38.58.38.92s-.14.68-.38.92c-.24.24-.58.38-.92.38Z"/>
          <path class="cls-5" d="M58.5,60.04c-.34,0-.67-.14-.92-.38-.24-.24-.38-.58-.38-.92s.14-.68.38-.92c.49-.48,1.35-.48,1.84,0,.24.24.38.58.38.92s-.14.68-.38.92c-.24.24-.58.38-.92.38Z"/>
          <path class="cls-5" d="M60.5,62.29c-.34,0-.68-.14-.92-.38-.24-.24-.38-.58-.38-.92s.14-.67.38-.92c.49-.48,1.35-.48,1.84,0,.24.24.38.58.38.92s-.14.68-.38.92c-.24.24-.57.38-.92.38Z"/>
          <path class="cls-5" d="M61,66.29c-.34,0-.67-.14-.92-.38-.24-.24-.38-.58-.38-.92s.14-.68.38-.92c.49-.48,1.35-.48,1.84,0,.24.24.38.58.38.92s-.14.68-.38.92c-.24.24-.58.38-.92.38Z"/>
          <path class="cls-5" d="M63,58.79c-.34,0-.68-.14-.92-.38-.24-.24-.38-.58-.38-.92s.14-.68.38-.92c.48-.48,1.35-.49,1.84,0,.24.24.38.58.38.92s-.14.68-.38.92c-.24.24-.57.38-.92.38Z"/>
          <path class="cls-5" d="M61.25,56.29c-.34,0-.67-.14-.92-.38-.24-.25-.38-.58-.38-.92s.14-.68.38-.92c.49-.48,1.35-.48,1.84,0,.24.24.38.58.38.92s-.14.68-.38.92c-.24.24-.58.38-.92.38Z"/>
          <path class="cls-5" d="M57,53.29c-.34,0-.67-.14-.92-.38-.24-.24-.38-.58-.38-.92s.14-.68.38-.92c.49-.48,1.35-.48,1.84,0,.24.24.38.58.38.92s-.14.68-.38.92c-.24.24-.58.38-.92.38Z"/>
          <path class="cls-5" d="M65,55.04c-.34,0-.67-.14-.92-.38-.24-.24-.38-.58-.38-.92s.14-.68.38-.92c.49-.48,1.35-.48,1.84,0,.24.24.38.58.38.92s-.14.68-.38.92c-.24.24-.58.38-.92.38Z"/>
          <path class="cls-5" d="M65.25,62.29c-.34,0-.68-.14-.92-.38-.24-.24-.38-.58-.38-.92s.14-.68.38-.92c.49-.49,1.36-.48,1.84,0,.24.24.38.58.38.92s-.14.68-.38.92c-.24.24-.57.38-.92.38Z"/>
          <path class="cls-5" d="M52,51.79c-.34,0-.67-.14-.92-.38-.24-.24-.38-.58-.38-.92s.14-.68.38-.92c.49-.48,1.36-.48,1.84,0,.24.24.38.58.38.92s-.14.68-.38.92c-.24.24-.58.38-.92.38Z"/>
          <path class="cls-5" d="M56.75,67.04c-.34,0-.68-.14-.92-.38-.24-.24-.38-.58-.38-.92s.14-.68.38-.92c.49-.48,1.36-.48,1.84,0,.24.24.38.58.38.92s-.14.68-.38.92c-.24.24-.57.38-.92.38Z"/>
          <path class="cls-5" d="M62.75,69.04c-.34,0-.67-.14-.92-.38-.24-.24-.38-.58-.38-.92s.14-.68.38-.92c.48-.48,1.36-.48,1.84,0,.24.24.38.58.38.92s-.14.68-.38.92c-.24.24-.58.38-.92.38Z"/>
          <path class="cls-5" d="M63.75,51.54c-.34,0-.68-.14-.92-.38-.24-.24-.38-.58-.38-.92s.14-.68.38-.92c.48-.48,1.36-.48,1.84,0,.24.24.38.58.38.92s-.14.68-.38.92c-.24.24-.58.38-.92.38Z"/>
          <path class="cls-5" d="M8,25.04c-.34,0-.67-.14-.92-.38-.24-.24-.38-.58-.38-.92s.14-.68.38-.92c.48-.48,1.36-.48,1.84,0,.25.24.38.58.38.92s-.13.67-.38.92c-.24.24-.58.38-.92.38Z"/>
          <path class="cls-5" d="M4.25,61.54c-.34,0-.67-.14-.92-.38-.24-.24-.38-.58-.38-.92s.14-.68.38-.92c.49-.48,1.36-.48,1.84,0,.24.25.38.58.38.92s-.14.67-.38.92c-.24.24-.58.38-.92.38Z"/>
          <path class="cls-5" d="M28.75,62.54c-.34,0-.67-.14-.92-.38-.24-.24-.38-.58-.38-.92s.14-.68.38-.92c.48-.48,1.36-.48,1.84,0,.24.24.38.58.38.92s-.14.68-.38.92c-.24.24-.58.38-.92.38Z"/>
          <path class="cls-5" d="M39,57.04c-.34,0-.67-.14-.92-.38-.24-.24-.38-.58-.38-.92s.14-.68.38-.92c.49-.48,1.36-.48,1.84,0,.24.24.38.58.38.92s-.14.68-.38.92c-.24.24-.58.38-.92.38Z"/>
          <path class="cls-5" d="M45.75,55.54c-.34,0-.68-.14-.92-.38-.24-.24-.38-.58-.38-.92s.14-.68.38-.92c.49-.49,1.36-.48,1.84,0,.24.24.38.58.38.92s-.14.68-.38.92c-.24.24-.58.38-.92.38Z"/>
          <path class="cls-5" d="M39.5,71.54c-.34,0-.67-.14-.92-.38-.24-.24-.38-.58-.38-.92s.14-.68.38-.92c.48-.48,1.36-.48,1.84,0,.24.24.38.58.38.92s-.14.68-.38.92c-.24.24-.58.38-.92.38Z"/>
          <path class="cls-5" d="M10,72.79c-.34,0-.67-.14-.92-.38-.24-.24-.38-.58-.38-.92s.14-.68.38-.92c.48-.48,1.36-.48,1.84,0,.24.24.38.58.38.92s-.14.68-.38.92c-.24.24-.58.38-.92.38Z"/>
          <path class="cls-5" d="M19.75,72.54c-.34,0-.67-.14-.92-.38-.24-.24-.38-.58-.38-.92s.14-.67.38-.92c.48-.48,1.35-.48,1.84,0,.24.24.38.58.38.92s-.14.68-.38.92c-.24.24-.58.38-.92.38Z"/>
          <path class="cls-5" d="M15.5,73.29c-.34,0-.68-.14-.92-.38-.24-.24-.38-.58-.38-.92s.14-.68.38-.92c.49-.48,1.36-.48,1.84,0,.24.24.38.58.38.92s-.14.68-.38.92c-.24.24-.57.38-.92.38Z"/>
          <path class="cls-5" d="M26.25,73.29c-.34,0-.68-.14-.92-.38-.24-.24-.38-.58-.38-.92s.14-.68.38-.92c.49-.48,1.36-.48,1.84,0,.24.24.38.58.38.92s-.14.68-.38.92c-.24.24-.57.38-.92.38Z"/>
          <path class="cls-5" d="M53.5,72.29c-.34,0-.68-.14-.92-.38-.24-.24-.38-.58-.38-.92s.14-.68.38-.92c.49-.48,1.36-.48,1.84,0,.24.24.38.58.38.92s-.14.68-.38.92c-.24.24-.58.38-.92.38Z"/>
          <path class="cls-5" d="M6.25,72.79c-.34,0-.67-.14-.92-.38-.24-.24-.38-.58-.38-.92s.14-.68.38-.92c.48-.48,1.36-.48,1.84,0,.24.24.38.58.38.92s-.14.67-.38.92c-.24.24-.58.38-.92.38Z"/>
          <path class="cls-5" d="M53.5,72.29c-.34,0-.68-.14-.92-.38-.24-.24-.38-.58-.38-.92s.14-.68.38-.92c.49-.48,1.36-.48,1.84,0,.24.24.38.58.38.92s-.14.68-.38.92c-.24.24-.58.38-.92.38Z"/>
          <path class="cls-5" d="M71,9.04c-.34,0-.68-.14-.92-.38-.24-.24-.38-.58-.38-.92s.14-.67.38-.92c.49-.49,1.36-.49,1.84,0,.24.24.38.58.38.92s-.14.68-.38.92c-.24.24-.58.38-.92.38Z"/>
          <path class="cls-5" d="M71.25,12.29c-.34,0-.67-.14-.92-.38-.24-.24-.38-.58-.38-.92s.14-.68.38-.92c.48-.48,1.36-.49,1.84,0,.24.24.38.58.38.92s-.14.68-.38.92c-.24.24-.58.38-.92.38Z"/>
          <path class="cls-5" d="M71.5,19.54c-.34,0-.68-.14-.92-.38-.24-.24-.38-.58-.38-.92s.14-.68.38-.92c.49-.48,1.36-.48,1.84,0,.24.24.38.58.38.92s-.14.68-.38.92c-.24.24-.58.38-.92.38Z"/>
          <path class="cls-5" d="M70.75,22.79c-.34,0-.68-.14-.92-.38-.24-.24-.38-.58-.38-.92s.14-.68.38-.92c.49-.48,1.36-.48,1.84,0,.24.24.38.58.38.92s-.14.68-.38.92c-.24.24-.58.38-.92.38Z"/>
          <path class="cls-5" d="M71.25,70.79c-.34,0-.67-.14-.92-.38-.24-.24-.38-.58-.38-.92s.14-.68.38-.92c.48-.48,1.36-.49,1.84,0,.24.24.38.58.38.92s-.14.68-.38.92c-.24.24-.58.38-.92.38Z"/>
          <path class="cls-5" d="M71.75,45.29c-.34,0-.67-.14-.92-.38-.24-.24-.38-.58-.38-.92s.14-.68.38-.92c.48-.48,1.36-.49,1.84,0,.24.24.38.58.38.92s-.14.68-.38.92c-.24.24-.58.38-.92.38Z"/>
          <path class="cls-5" d="M70.75,56.04c-.34,0-.68-.14-.92-.38-.24-.24-.38-.58-.38-.92s.14-.68.38-.92c.49-.48,1.36-.48,1.84,0,.24.24.38.58.38.92s-.14.68-.38.92c-.24.24-.58.38-.92.38Z"/>
          <path class="cls-5" d="M71.75,52.04c-.34,0-.68-.14-.92-.38-.24-.24-.38-.58-.38-.92s.14-.68.38-.92c.49-.48,1.36-.48,1.84,0,.24.24.38.58.38.92s-.14.68-.38.92c-.24.24-.58.38-.92.38Z"/>
          <path class="cls-5" d="M44.75,70.54c-.34,0-.67-.14-.92-.38-.24-.24-.38-.58-.38-.92s.14-.67.38-.92c.49-.48,1.35-.48,1.84,0,.24.25.38.58.38.92s-.14.68-.38.92c-.24.24-.58.38-.92.38Z"/>
          <path class="cls-5" d="M39,68.04c-.34,0-.67-.14-.92-.38-.24-.24-.38-.58-.38-.92s.14-.68.38-.92c.48-.48,1.36-.48,1.84,0,.24.24.38.58.38.92s-.14.68-.38.92c-.24.24-.58.38-.92.38Z"/>
        </g>
        <g>
          <path class="cls-5" d="M-.75,65.29c-.34,0-.67-.14-.92-.38-.24-.24-.38-.58-.38-.92s.14-.68.38-.92c.48-.48,1.36-.48,1.84,0,.24.24.38.58.38.92s-.14.68-.38.92c-.24.24-.58.38-.92.38Z"/>
          <path class="cls-5" d="M-1,9.04c-.34,0-.68-.14-.92-.38-.24-.24-.38-.58-.38-.92s.14-.67.38-.92c.49-.49,1.36-.49,1.84,0,.24.24.38.58.38.92s-.14.68-.38.92c-.24.24-.58.38-.92.38Z"/>
          <path class="cls-5" d="M-.75,12.29c-.34,0-.67-.14-.92-.38-.24-.24-.38-.58-.38-.92s.14-.68.38-.92c.48-.48,1.36-.49,1.84,0,.24.24.38.58.38.92s-.14.68-.38.92c-.24.24-.58.38-.92.38Z"/>
          <path class="cls-5" d="M-.5,19.54c-.34,0-.68-.14-.92-.38-.24-.24-.38-.58-.38-.92s.14-.68.38-.92c.49-.48,1.36-.48,1.84,0,.24.24.38.58.38.92s-.14.68-.38.92c-.24.24-.58.38-.92.38Z"/>
          <path class="cls-5" d="M-1.25,22.79c-.34,0-.68-.14-.92-.38-.24-.24-.38-.58-.38-.92s.14-.68.38-.92c.49-.48,1.36-.48,1.84,0,.24.24.38.58.38.92s-.14.68-.38.92c-.24.24-.58.38-.92.38Z"/>
          <path class="cls-5" d="M-.75,70.79c-.34,0-.67-.14-.92-.38-.24-.24-.38-.58-.38-.92s.14-.68.38-.92c.48-.48,1.36-.49,1.84,0,.24.24.38.58.38.92s-.14.68-.38.92c-.24.24-.58.38-.92.38Z"/>
          <path class="cls-5" d="M-.25,45.29c-.34,0-.67-.14-.92-.38-.24-.24-.38-.58-.38-.92s.14-.68.38-.92c.48-.48,1.36-.49,1.84,0,.24.24.38.58.38.92s-.14.68-.38.92c-.24.24-.58.38-.92.38Z"/>
          <path class="cls-5" d="M-1.25,56.04c-.34,0-.68-.14-.92-.38-.24-.24-.38-.58-.38-.92s.14-.68.38-.92c.49-.48,1.36-.48,1.84,0,.24.24.38.58.38.92s-.14.68-.38.92c-.24.24-.58.38-.92.38Z"/>
          <path class="cls-5" d="M-.25,52.04c-.34,0-.68-.14-.92-.38-.24-.24-.38-.58-.38-.92s.14-.68.38-.92c.49-.48,1.36-.48,1.84,0,.24.24.38.58.38.92s-.14.68-.38.92c-.24.24-.58.38-.92.38Z"/>
        </g>
        <g>
          <path class="cls-5" d="M53.5.29c-.34,0-.68-.14-.92-.38-.24-.24-.38-.58-.38-.92s.14-.68.38-.92c.49-.48,1.36-.48,1.84,0,.24.24.38.58.38.92s-.14.68-.38.92c-.24.24-.58.38-.92.38Z"/>
          <path class="cls-5" d="M10,.79c-.34,0-.67-.14-.92-.38-.24-.24-.38-.58-.38-.92s.14-.68.38-.92c.48-.48,1.36-.48,1.84,0,.24.24.38.58.38.92s-.14.68-.38.92c-.24.24-.58.38-.92.38Z"/>
          <path class="cls-5" d="M19.75.54c-.34,0-.67-.14-.92-.38-.24-.24-.38-.58-.38-.92s.14-.67.38-.92c.48-.48,1.35-.48,1.84,0,.24.24.38.58.38.92s-.14.68-.38.92c-.24.24-.58.38-.92.38Z"/>
          <path class="cls-5" d="M15.5,1.29c-.34,0-.68-.14-.92-.38-.24-.24-.38-.58-.38-.92s.14-.68.38-.92c.49-.48,1.36-.48,1.84,0,.24.24.38.58.38.92s-.14.68-.38.92c-.24.24-.57.38-.92.38Z"/>
          <path class="cls-5" d="M26.25,1.29c-.34,0-.68-.14-.92-.38-.24-.24-.38-.58-.38-.92s.14-.68.38-.92c.49-.48,1.36-.48,1.84,0,.24.24.38.58.38.92s-.14.68-.38.92c-.24.24-.57.38-.92.38Z"/>
          <path class="cls-5" d="M53.5.29c-.34,0-.68-.14-.92-.38-.24-.24-.38-.58-.38-.92s.14-.68.38-.92c.49-.48,1.36-.48,1.84,0,.24.24.38.58.38.92s-.14.68-.38.92c-.24.24-.58.38-.92.38Z"/>
          <path class="cls-5" d="M6.25.79c-.34,0-.67-.14-.92-.38-.24-.24-.38-.58-.38-.92s.14-.68.38-.92c.48-.48,1.36-.48,1.84,0,.24.24.38.58.38.92s-.14.67-.38.92c-.24.24-.58.38-.92.38Z"/>
          <path class="cls-5" d="M53.5.29c-.34,0-.68-.14-.92-.38-.24-.24-.38-.58-.38-.92s.14-.68.38-.92c.49-.48,1.36-.48,1.84,0,.24.24.38.58.38.92s-.14.68-.38.92c-.24.24-.58.38-.92.38Z"/>
        </g>
      </g>
    </pattern>
    <pattern id="_10_lpi_40_2" data-name="10 lpi 40% 2" x="0" y="0" width="72" height="72" patternTransform="translate(-3989.19 13.38) scale(.5 .97)" patternUnits="userSpaceOnUse" viewBox="0 0 72 72">
      <g>
        <rect class="cls-2" width="72" height="72"/>
        <g>
          <line class="cls-16" x1="71.75" y1="68.4" x2="144.25" y2="68.4"/>
          <line class="cls-16" x1="71.75" y1="54" x2="144.25" y2="54"/>
          <line class="cls-16" x1="71.75" y1="39.6" x2="144.25" y2="39.6"/>
          <line class="cls-16" x1="71.75" y1="25.2" x2="144.25" y2="25.2"/>
          <line class="cls-16" x1="71.75" y1="10.8" x2="144.25" y2="10.8"/>
          <line class="cls-16" x1="71.75" y1="61.2" x2="144.25" y2="61.2"/>
          <line class="cls-16" x1="71.75" y1="46.8" x2="144.25" y2="46.8"/>
          <line class="cls-16" x1="71.75" y1="32.4" x2="144.25" y2="32.4"/>
          <line class="cls-16" x1="71.75" y1="18" x2="144.25" y2="18"/>
          <line class="cls-16" x1="71.75" y1="3.6" x2="144.25" y2="3.6"/>
        </g>
        <g>
          <line class="cls-16" x1="-.25" y1="68.4" x2="72.25" y2="68.4"/>
          <line class="cls-16" x1="-.25" y1="54" x2="72.25" y2="54"/>
          <line class="cls-16" x1="-.25" y1="39.6" x2="72.25" y2="39.6"/>
          <line class="cls-16" x1="-.25" y1="25.2" x2="72.25" y2="25.2"/>
          <line class="cls-16" x1="-.25" y1="10.8" x2="72.25" y2="10.8"/>
          <line class="cls-16" x1="-.25" y1="61.2" x2="72.25" y2="61.2"/>
          <line class="cls-16" x1="-.25" y1="46.8" x2="72.25" y2="46.8"/>
          <line class="cls-16" x1="-.25" y1="32.4" x2="72.25" y2="32.4"/>
          <line class="cls-16" x1="-.25" y1="18" x2="72.25" y2="18"/>
          <line class="cls-16" x1="-.25" y1="3.6" x2="72.25" y2="3.6"/>
        </g>
        <g>
          <line class="cls-16" x1="-72.25" y1="68.4" x2=".25" y2="68.4"/>
          <line class="cls-16" x1="-72.25" y1="54" x2=".25" y2="54"/>
          <line class="cls-16" x1="-72.25" y1="39.6" x2=".25" y2="39.6"/>
          <line class="cls-16" x1="-72.25" y1="25.2" x2=".25" y2="25.2"/>
          <line class="cls-16" x1="-72.25" y1="10.8" x2=".25" y2="10.8"/>
          <line class="cls-16" x1="-72.25" y1="61.2" x2=".25" y2="61.2"/>
          <line class="cls-16" x1="-72.25" y1="46.8" x2=".25" y2="46.8"/>
          <line class="cls-16" x1="-72.25" y1="32.4" x2=".25" y2="32.4"/>
          <line class="cls-16" x1="-72.25" y1="18" x2=".25" y2="18"/>
          <line class="cls-16" x1="-72.25" y1="3.6" x2=".25" y2="3.6"/>
        </g>
      </g>
    </pattern>
  </defs>
  <g class="cls-15">
    <g class="cls-35">
      <polygon class="cls-1" points="320.56 13.51 193.69 -74.48 220.73 11.35 247.76 11.35 320.56 13.51"/>
      <polygon class="cls-3" points="170.16 -73.54 137.06 26.36 202.23 26.36 170.16 -73.54"/>
    </g>
  </g>
  <g>
    <rect class="cls-4" x="0" width="340.16" height="226.77"/>
    <text class="cls-40" transform="translate(10.73 107.92)"><tspan class="cls-37" x="0" y="0">M</tspan><tspan class="cls-9" x="13.74" y="0">a</tspan><tspan class="cls-18" x="21.83" y="0">r</tspan><tspan class="cls-43" x="27.97" y="0">i</tspan><tspan class="cls-18" x="32.04" y="0">a </tspan><tspan class="cls-58" x="43.76" y="0">I</tspan><tspan class="cls-18" x="48.46" y="0">ns L</tspan><tspan class="cls-7" x="84.34" y="0">u</tspan><tspan class="cls-43" x="92.87" y="0">c</tspan><tspan class="cls-37" x="100.35" y="0">a</tspan><tspan class="cls-18" x="108.51" y="0">s</tspan></text>
    <text class="cls-22" transform="translate(10.73 125.48)"><tspan class="cls-20" x="0" y="0">M</tspan><tspan class="cls-39" x="10.8" y="0">a</tspan><tspan class="cls-34" x="16.91" y="0">r</tspan><tspan class="cls-38" x="21.23" y="0">k</tspan><tspan class="cls-26" x="26.88" y="0">e</tspan><tspan class="cls-34" x="32.92" y="0">ti</tspan><tspan class="cls-57" x="40.14" y="0">n</tspan><tspan class="cls-34" x="46.97" y="0">g O</tspan><tspan class="cls-57" x="65.82" y="0">ffic</tspan><tspan class="cls-31" x="82.27" y="0">er</tspan></text>
    <text class="cls-22" transform="translate(182.23 185.3)"><tspan class="cls-48" x="0" y="0">t</tspan><tspan class="cls-55" x="3.99" y="0">e</tspan><tspan class="cls-31" x="9.97" y="0">l</tspan><tspan class="cls-31" x="0" y="12.92">m</tspan><tspan class="cls-55" x="10.14" y="12.92">obil</tspan><tspan class="cls-33" x="29.97" y="12.92">e</tspan><tspan class="cls-31" x="0" y="25.84">em</tspan><tspan class="cls-45" x="16.24" y="25.84">a</tspan><tspan class="cls-55" x="22.48" y="25.84">i</tspan><tspan class="cls-31" x="25.27" y="25.84">l</tspan></text>
    <text class="cls-22" transform="translate(225.94 185.3)"><tspan class="cls-31" x="0" y="0">+3</tspan><tspan class="cls-8" x="13.42" y="0">5</tspan><tspan class="cls-33" x="20.04" y="0">1 9</tspan><tspan class="cls-27" x="33.96" y="0">1</tspan><tspan class="cls-20" x="38.35" y="0">5</tspan><tspan class="cls-45" x="44.85" y="0">7</tspan><tspan class="cls-54" x="50.71" y="0">8</tspan><tspan class="cls-51" x="57.51" y="0">1</tspan><tspan class="cls-52" x="61.9" y="0">5</tspan><tspan class="cls-50" x="68.65" y="0">4</tspan><tspan class="cls-31" x="75.64" y="0">2</tspan><tspan class="cls-31" x="0" y="12.92">+3</tspan><tspan class="cls-8" x="13.42" y="12.92">5</tspan><tspan class="cls-33" x="20.04" y="12.92">1 9</tspan><tspan class="cls-27" x="33.96" y="12.92">1</tspan><tspan class="cls-20" x="38.35" y="12.92">5</tspan><tspan class="cls-45" x="44.85" y="12.92">7</tspan><tspan class="cls-54" x="50.71" y="12.92">8</tspan><tspan class="cls-51" x="57.51" y="12.92">1</tspan><tspan class="cls-52" x="61.9" y="12.92">5</tspan><tspan class="cls-50" x="68.65" y="12.92">4</tspan><tspan class="cls-31" x="75.64" y="12.92">2</tspan><tspan class="cls-31" x="0" y="25.84">M.</tspan><tspan class="cls-25" x="12.9" y="25.84">l</tspan><tspan class="cls-55" x="15.72" y="25.84">u</tspan><tspan class="cls-31" x="22.23" y="25.84">c</tspan><tspan class="cls-55" x="28.36" y="25.84">a</tspan><tspan class="cls-8" x="34.72" y="25.84">s</tspan><tspan class="cls-33" x="39.96" y="25.84">@</tspan><tspan class="cls-45" x="50.42" y="25.84">e</tspan><tspan class="cls-54" x="56.27" y="25.84">x</tspan><tspan class="cls-13" x="62.16" y="25.84">t</tspan><tspan class="cls-48" x="66.28" y="25.84">.</tspan><tspan class="cls-55" x="68.72" y="25.84">ei</tspan><tspan class="cls-28" x="77.49" y="25.84">f</tspan><tspan class="cls-44" x="81.22" y="25.84">.</tspan><tspan class="cls-33" x="83.66" y="25.84">o</tspan><tspan class="cls-19" x="91.02" y="25.84">r</tspan><tspan class="cls-31" x="95.15" y="25.84">g</tspan></text>
    <text class="cls-41" transform="translate(11.22 185.29)"><tspan class="cls-42"><tspan class="cls-20" x="0" y="0">Eu</tspan><tspan class="cls-57" x="15" y="0">r</tspan><tspan class="cls-8" x="19.84" y="0">op</tspan><tspan class="cls-26" x="34.88" y="0">e</tspan><tspan class="cls-46" x="41" y="0">a</tspan><tspan class="cls-34" x="47.54" y="0">n </tspan><tspan class="cls-20" x="57.59" y="0">I</tspan><tspan class="cls-13" x="61.37" y="0">nv</tspan><tspan class="cls-34" x="74.49" y="0">es</tspan><tspan class="cls-26" x="86.01" y="0">t</tspan><tspan class="cls-34" x="90.6" y="0">ment </tspan><tspan class="cls-38" x="122.34" y="0">F</tspan><tspan class="cls-26" x="129.41" y="0">u</tspan><tspan class="cls-34" x="136.44" y="0">nd</tspan></tspan><tspan class="cls-23"><tspan class="cls-34" x="0" y="12.92">37</tspan><tspan class="cls-57" x="12.87" y="12.92">B</tspan><tspan class="cls-34" x="20.2" y="12.92">, </tspan><tspan class="cls-36" x="25.48" y="12.92">a</tspan><tspan class="cls-13" x="31.35" y="12.92">v</tspan><tspan class="cls-34" x="37.05" y="12.92">e</tspan><tspan class="cls-20" x="43.15" y="12.92">n</tspan><tspan class="cls-57" x="50.05" y="12.92">u</tspan><tspan class="cls-34" x="56.56" y="12.92">e </tspan><tspan class="cls-53" x="65.19" y="12.92">J</tspan><tspan class="cls-31" x="70.17" y="12.92">.</tspan><tspan class="cls-24" x="72.92" y="12.92">F</tspan><tspan class="cls-34" x="78.48" y="12.92">. </tspan><tspan class="cls-30" x="83.76" y="12.92">K</tspan><tspan class="cls-34" x="91.23" y="12.92">enne</tspan><tspan class="cls-20" x="117.34" y="12.92">d</tspan><tspan class="cls-34" x="124.56" y="12.92">y</tspan></tspan><tspan class="cls-23"><tspan class="cls-44" x="0" y="25.84">L</tspan><tspan class="cls-57" x="6.81" y="25.84">-</tspan><tspan class="cls-8" x="10.54" y="25.84">2</tspan><tspan class="cls-13" x="17.3" y="25.84">9</tspan><tspan class="cls-12" x="24.24" y="25.84">68</tspan><tspan class="cls-34" x="38.42" y="25.84">, </tspan><tspan class="cls-11" x="43.7" y="25.84">L</tspan><tspan class="cls-54" x="50.88" y="25.84">u</tspan><tspan class="cls-46" x="57.39" y="25.84">x</tspan><tspan class="cls-34" x="63.15" y="25.84">embou</tspan><tspan class="cls-13" x="100.55" y="25.84">r</tspan><tspan class="cls-34" x="104.68" y="25.84">g</tspan></tspan></text>
    <line class="cls-17" x1="172.46" y1="175.3" x2="172.46" y2="214.35"/>
    <text class="cls-21" transform="translate(270.54 21.75)"><tspan class="cls-10" x="0" y="0">ww</tspan><tspan class="cls-47" x="16.6" y="0">w</tspan><tspan class="cls-49" x="24.1" y="0">.</tspan><tspan class="cls-56" x="26.35" y="0">ei</tspan><tspan class="cls-29" x="34.41" y="0">f</tspan><tspan class="cls-49" x="37.84" y="0">.</tspan><tspan class="cls-32" x="40.08" y="0">o</tspan><tspan class="cls-14" x="46.84" y="0">r</tspan><tspan class="cls-32" x="50.64" y="0">g</tspan></text>
    <g>
      <rect class="cls-6" x="12.53" y="13.13" width="21.27" height="7.09"/>
      <rect class="cls-6" x="40.89" y="13.13" width="7.09" height="35.45"/>
      <rect class="cls-6" x="55.07" y="41.49" width="7.09" height="7.09"/>
      <rect class="cls-6" x="12.53" y="27.31" width="21.27" height="7.09"/>
      <rect class="cls-6" x="55.07" y="13.13" width="21.27" height="7.09"/>
      <rect class="cls-6" x="55.07" y="27.31" width="21.27" height="7.09"/>
      <rect class="cls-6" x="12.53" y="41.49" width="21.27" height="7.09"/>
      <g>
        <path class="cls-6" d="M85.59,19.92l-.58,3.14h-.33l.58-3.14h-1.81v-.26h1.85l.6-3.15h-1.81v-.26h1.85l.58-3.14h.33l-.58,3.14h2.58l.58-3.14h.33l-.58,3.14h1.82v.26h-1.86l-.6,3.15h1.84v.26h-1.88l-.58,3.14h-.33l.58-3.14h-2.58ZM86.23,16.51l-.6,3.15h2.58l.6-3.15h-2.58Z"/>
        <path class="cls-6" d="M91.36,23.04c.44-.68.54-1.09.54-2.01v-5.87c0-.91-.12-1.33-.54-2.01v-.03c2.11,0,2.35-.05,3.33-.05,2.85,0,3.33,1.29,3.33,2.31,0,1.13-.58,2.07-1.82,2.43,1.69.22,2.31,1.35,2.31,2.5,0,1.58-1.13,2.76-3.79,2.76h-3.36v-.03ZM96.93,15.45c0-1.4-.82-2.12-2.38-2.12-.6,0-1.11.04-1.54.1v4.32h1.97c1.45,0,1.94-1.2,1.94-2.3ZM97.3,20.36c0-1.37-.71-2.34-2.19-2.34h-2.09v4.65c.44.07.99.12,1.59.12,1.85,0,2.69-.97,2.69-2.43Z"/>
        <path class="cls-6" d="M101.97,23.27c-1.79,0-2.99-1.37-2.99-3.33,0-2.16,1.51-3.55,3.09-3.55s2.6,1.36,2.49,2.62h-4.53c-.01.07-.01.15-.01.23v.23c0,1.84.87,2.92,2.41,2.92.83,0,1.62-.33,2.09-1.02l.07.04c-.34,1.07-1.26,1.85-2.61,1.85ZM100.06,18.8l3.4-.07v-.11c0-1.36-.5-1.98-1.44-1.98-1.09,0-1.78.86-1.96,2.16Z"/>
        <path class="cls-6" d="M105.32,21.32v-6.92c0-.64-.3-.99-.61-1.25v-.03l1.6-.65v8.84c0,.86.04,1.31.3,1.73v.03h-1.59v-.03c.22-.42.3-.86.3-1.71Z"/>
        <path class="cls-6" d="M107.61,20.97v-2.53c0-.67-.29-1.07-.6-1.35v-.05l1.59-.72v4.64c0,.94.03,1.48.3,2.08v.03h-1.59v-.03c.22-.6.3-1.13.3-2.07ZM108.06,14.79c-.37,0-.68-.3-.68-.68s.31-.68.68-.68.67.31.67.68-.3.68-.67.68Z"/>
        <path class="cls-6" d="M112.4,23.27c-1.79,0-2.99-1.37-2.99-3.33,0-2.16,1.51-3.55,3.09-3.55s2.6,1.36,2.49,2.62h-4.53c-.01.07-.01.15-.01.23v.23c0,1.84.87,2.92,2.41,2.92.83,0,1.62-.33,2.09-1.02l.07.04c-.34,1.07-1.26,1.85-2.61,1.85ZM110.48,18.8l3.4-.07v-.11c0-1.36-.5-1.98-1.44-1.98-1.09,0-1.78.86-1.96,2.16Z"/>
        <path class="cls-6" d="M114.86,16.62v-.03h1.93v.03c-.22.26-.31.72-.04,1.44l1.37,3.62,1.28-3.37c.31-.86.18-1.41-.14-1.69v-.03h1.4v.03c-.45.41-.64.73-.94,1.54l-1.93,5h-.14l-1.97-5.06c-.33-.84-.5-1.2-.83-1.48Z"/>
        <path class="cls-6" d="M123.14,23.27c-1.79,0-2.99-1.37-2.99-3.33,0-2.16,1.51-3.55,3.09-3.55s2.6,1.36,2.49,2.62h-4.53c-.01.07-.01.15-.01.23v.23c0,1.84.87,2.92,2.41,2.92.83,0,1.62-.33,2.09-1.02l.07.04c-.34,1.07-1.26,1.85-2.61,1.85ZM121.22,18.8l3.4-.07v-.11c0-1.36-.5-1.98-1.44-1.98-1.09,0-1.78.86-1.96,2.16Z"/>
      </g>
      <g>
        <path class="cls-6" d="M84.48,32.34v-5.87c0-.92-.11-1.32-.54-2.01v-.03h2.2v.03c-.45.71-.54,1.07-.54,2.01v5.87c0,.94.1,1.3.54,2.01v.03h-2.2v-.03c.45-.71.54-1.07.54-2.01Z"/>
        <path class="cls-6" d="M86.87,34.38v-.03c.26-.58.3-1.13.3-2.07v-2.54c0-.69-.29-1.09-.6-1.36v-.03l1.54-.72v1.26h.05c.64-.75,1.41-1.2,2.32-1.2,1.25,0,1.92.75,1.92,1.98v2.58c0,.97.01,1.5.3,2.08v.03h-1.59v-.03c.26-.6.3-1.16.3-2.07v-2.38c0-.83-.37-1.54-1.4-1.54-.64,0-1.32.26-1.85.8v3.1c0,.94.03,1.48.3,2.08v.03h-1.59Z"/>
        <path class="cls-6" d="M98.97,26.82c-.73-1.79-1.67-2.32-2.69-2.32-1.25,0-1.84.76-1.84,1.69,0,1.37,1.22,1.88,2.53,2.46,1.37.61,2.79,1.32,2.79,3.15,0,2-1.63,2.79-3.49,2.79-.92,0-1.88-.2-2.69-.52l-.27-2.2.11-.04c.82,1.74,1.77,2.49,3.18,2.49s2.15-.86,2.15-2.01c0-1.48-1.13-2.08-2.37-2.62-1.37-.65-2.8-1.24-2.8-2.99s1.35-2.46,3.03-2.46c.82,0,1.6.18,2.2.41l.27,2.15-.11.04Z"/>
        <path class="cls-6" d="M100.38,34.38v-.03c.26-.58.31-1.1.31-2.04v-2.56c0-.71-.29-1.1-.61-1.39v-.03l1.55-.72v1.28h.05c.5-.75,1.22-1.2,2.13-1.2s1.4.45,1.55,1.21h.04c.53-.75,1.24-1.21,2.15-1.21,1.16,0,1.59.69,1.59,1.84v2.76c0,.94.01,1.48.3,2.05v.03h-1.59v-.03c.26-.58.3-1.16.3-2.04v-2.56c0-.76-.2-1.39-1.11-1.39-.67,0-1.21.34-1.63.84v3.09c0,.95.03,1.47.31,2.05v.03h-1.6v-.03c.26-.58.3-1.16.3-2.04v-2.56c0-.76-.2-1.39-1.11-1.39-.67,0-1.22.33-1.62.83v3.1c0,.92.03,1.47.3,2.05v.03h-1.6Z"/>
        <path class="cls-6" d="M113.61,33.64c-.45.5-1.18.94-2.05.94s-1.52-.45-1.52-1.28c0-1.5,2.08-2.18,3.58-2.35v-1.36c0-.72-.31-1.29-1.4-1.29-.64,0-1.33.2-1.86.6l-.07-.08c.54-.65,1.43-1.11,2.51-1.11,1.47,0,1.81.79,1.81,1.64v4c0,.34.15.58.53.58.26,0,.45-.12.65-.29l.04.03c-.14.35-.49.87-1.21.87-.64,0-.95-.39-1.01-.9ZM113.61,33.41v-2.26c-1.26.22-2.61.75-2.61,1.84,0,.58.35.99,1.11.99.61,0,1.18-.26,1.5-.57Z"/>
        <path class="cls-6" d="M116.12,32.64v-6.92c0-.64-.3-.99-.61-1.25v-.03l1.6-.65v8.84c0,.86.04,1.3.3,1.73v.03h-1.59v-.03c.22-.42.3-.86.3-1.71Z"/>
        <path class="cls-6" d="M118.46,32.64v-6.92c0-.64-.3-.99-.61-1.25v-.03l1.6-.65v8.84c0,.86.04,1.3.3,1.73v.03h-1.59v-.03c.22-.42.3-.86.3-1.71Z"/>
      </g>
    </g>
  </g>
</svg>